<svg width="36" height="36" viewBox="0 0 36 36" fill="none" xmlns="http://www.w3.org/2000/svg">
<path d="M16.29 9.86002L7.82002 24C7.64539 24.3024 7.55299 24.6453 7.55201 24.9945C7.55103 25.3438 7.64151 25.6872 7.81445 25.9905C7.98738 26.2939 8.23675 26.5468 8.53773 26.7239C8.83871 26.901 9.18082 26.9962 9.53002 27H26.47C26.8192 26.9962 27.1613 26.901 27.4623 26.7239C27.7633 26.5468 28.0127 26.2939 28.1856 25.9905C28.3585 25.6872 28.449 25.3438 28.448 24.9945C28.4471 24.6453 28.3547 24.3024 28.18 24L19.71 9.86002C19.5318 9.56613 19.2807 9.32314 18.9812 9.15451C18.6817 8.98587 18.3438 8.89728 18 8.89728C17.6563 8.89728 17.3184 8.98587 17.0188 9.15451C16.7193 9.32314 16.4683 9.56613 16.29 9.86002V9.86002Z" stroke="inherit" stroke-width="2" stroke-linecap="round" stroke-linejoin="round"/>
<path d="M18 15V19" stroke="inherit" stroke-width="2" stroke-linecap="round" stroke-linejoin="round"/>
<path d="M18 23H18.01" stroke="inherit" stroke-width="2" stroke-linecap="round" stroke-linejoin="round"/>
</svg>
