<svg width="36" height="36" viewBox="0 0 36 36" fill="none" xmlns="http://www.w3.org/2000/svg">
<path d="M27.1729 13.7856C26.3293 13.7856 25.6561 14.4456 25.6561 15.2726V21.4543C25.6561 22.2813 26.3293 22.9412 27.1729 22.9412C28.0165 22.9412 28.6897 22.2813 28.6897 21.4543V15.2726C28.6897 14.4456 28.0165 13.7856 27.1729 13.7856Z" fill="#263238"/>
<path d="M9.51679 13.7856C8.67318 13.7856 8 14.4456 8 15.2726V21.4543C8 22.2813 8.67318 22.9412 9.51679 22.9412C10.3604 22.9412 11.0336 22.2813 11.0336 21.4543V15.2726C11.0251 14.4456 10.3604 13.7856 9.51679 13.7856Z" fill="#263238"/>
<path d="M21.6511 8.20536L22.7162 6.31744C22.7759 6.20884 22.7418 6.09189 22.631 6.03341C22.6054 6.00835 22.5714 6 22.5373 6C22.4606 6 22.3839 6.03341 22.3498 6.1086L21.2676 8.02158C20.3814 7.63731 19.3929 7.42012 18.3448 7.42012C17.2967 7.42012 16.3082 7.63731 15.422 8.02158L14.3398 6.1086C14.2972 6.03341 14.229 6 14.1523 6C14.1182 6 14.0841 6.00835 14.0501 6.02506C13.9393 6.08354 13.9052 6.20884 13.9648 6.30908L15.03 8.19701C12.9764 9.24957 11.5959 11.2377 11.5874 13.5183H25.0937C25.0937 11.2377 23.7047 9.24957 21.6511 8.20536ZM15.226 11.0957C14.9192 11.0957 14.6636 10.8451 14.6636 10.5444C14.6636 10.2437 14.9192 9.99304 15.226 9.99304C15.5328 9.99304 15.7884 10.2437 15.7884 10.5444C15.7884 10.8451 15.5328 11.0957 15.226 11.0957ZM21.4636 11.0957C21.1568 11.0957 20.9012 10.8451 20.9012 10.5444C20.9012 10.2437 21.1568 9.99304 21.4636 9.99304C21.7704 9.99304 22.026 10.2437 22.026 10.5444C22.026 10.8451 21.7704 11.0957 21.4636 11.0957Z" fill="#263238"/>
<path d="M11.5874 23.6344C11.5874 24.5199 12.3117 25.2383 13.2235 25.2383H14.3057V28.5129C14.3057 29.34 14.9789 29.9999 15.8225 29.9999C16.6661 29.9999 17.3393 29.34 17.3393 28.5129V25.2383H19.3588V28.5129C19.3588 29.34 20.032 29.9999 20.8756 29.9999C21.7192 29.9999 22.3924 29.34 22.3924 28.5129V25.2383H23.4746C24.3779 25.2383 25.1107 24.5283 25.1107 23.6344V14.0444H11.5874V23.6344Z" fill="#263238"/>
</svg>
