<svg width="36" height="36" viewBox="0 0 36 36" fill="none" xmlns="http://www.w3.org/2000/svg">
<path d="M0 9C0 4.02944 4.02944 0 9 0H27C31.9706 0 36 4.02944 36 9V27C36 31.9706 31.9706 36 27 36H9C4.02944 36 0 31.9706 0 27V9Z" fill="#E6E6E6"/>
<path d="M20.1134 20.4742C19.6186 19.9794 18.8763 19.6082 17.8866 19.6082C16.8969 19.6082 16.1546 19.9794 15.6598 20.4742C15.4124 20.7216 15.2887 20.9691 15.2887 21.3402C15.1649 22.0825 15.2887 22.701 15.2887 23.6907C15.4124 24.6804 15.5361 25.9175 15.7835 27.1546C15.9072 28.0206 16.0309 28.5155 16.1546 28.8866C16.2783 29.5052 17.0206 30 18.0103 30C19 30 19.6186 29.5052 19.866 28.8866C19.9897 28.5155 20.1134 28.0206 20.2371 27.1546C20.4845 25.9175 20.6082 24.5567 20.732 23.6907C20.8557 22.701 20.8557 22.0825 20.732 21.3402C20.4845 20.9691 20.3608 20.7216 20.1134 20.4742ZM15.2887 16.0206C15.2887 17.3814 16.4021 18.6186 17.8866 18.6186C19.2474 18.6186 20.4845 17.5052 20.4845 16.0206C20.4845 14.6598 19.3711 13.4227 17.8866 13.4227C16.4021 13.5464 15.2887 14.6598 15.2887 16.0206ZM17.8866 6C11.9485 6 7 10.8247 7 16.7629C7 21.5876 9.96907 25.6701 14.299 27.2784C14.4227 27.2784 14.5464 27.2784 14.5464 27.1546C14.5464 26.7835 14.4227 26.4124 14.4227 26.0412C14.4227 25.9175 14.299 25.7938 14.1753 25.7938C10.8351 24.3093 8.36082 20.8454 8.48454 16.8866C8.48454 11.6907 12.8144 7.48454 18.0103 7.48454C23.3299 7.48454 27.6598 11.6907 27.6598 17.0103C27.6598 20.9691 25.3093 24.3093 21.9691 25.7938C21.8454 25.7938 21.7216 25.9175 21.7216 26.0412C21.7216 26.4124 21.5979 26.7835 21.5979 27.1546C21.5979 27.2784 21.7216 27.4021 21.8454 27.2784C26.0515 25.7938 29.1443 21.7113 29.1443 16.8866C28.7732 10.8247 23.9485 6 17.8866 6ZM17.6392 10.9485C20.9794 10.8247 23.8247 13.5464 23.8247 16.8866C23.8247 18.6186 23.0825 20.1031 21.9691 21.2165C21.8454 21.3402 21.8454 21.4639 21.8454 21.5876C21.8454 21.9588 21.8454 22.3299 21.8454 22.8247C21.8454 22.9485 21.9691 23.0722 22.0928 22.9485C24.0722 21.5876 25.3093 19.3608 25.3093 16.8866C25.3093 12.8041 21.8454 9.34021 17.6392 9.58763C13.8041 9.71134 10.5876 12.9278 10.5876 16.7629C10.5876 19.3608 11.8247 21.5876 13.8041 22.9485C13.9278 23.0722 14.0515 22.9485 14.0515 22.8247C14.0515 22.3299 14.0515 21.9588 14.0515 21.5876C14.0515 21.4639 14.0515 21.3402 13.9278 21.2165C12.6907 20.1031 11.9485 18.4948 12.0722 16.7629C12.0722 13.6701 14.5464 11.0722 17.6392 10.9485Z" fill="#263238"/>
</svg>
