<svg width="36" height="36" viewBox="0 0 36 36" fill="none" xmlns="http://www.w3.org/2000/svg">
<path d="M18 22C20.2091 22 22 20.2091 22 18C22 15.7909 20.2091 14 18 14C15.7909 14 14 15.7909 14 18C14 20.2091 15.7909 22 18 22Z" stroke="inherit" stroke-width="2" stroke-linecap="round" stroke-linejoin="round"/>
<path d="M22 14.0001V19.0001C22 19.7958 22.3161 20.5588 22.8787 21.1214C23.4413 21.684 24.2044 22.0001 25 22.0001C25.7957 22.0001 26.5587 21.684 27.1213 21.1214C27.6839 20.5588 28 19.7958 28 19.0001V18.0001C27.9999 15.7431 27.2362 13.5526 25.8333 11.7846C24.4303 10.0167 22.4706 8.77534 20.2726 8.26241C18.0747 7.74948 15.7679 7.99515 13.7274 8.95948C11.6868 9.9238 10.0324 11.5501 9.03327 13.5738C8.03413 15.5976 7.74898 17.8998 8.22418 20.1062C8.69938 22.3126 9.90699 24.2933 11.6506 25.7264C13.3943 27.1594 15.5714 27.9605 17.8281 27.9993C20.0847 28.0381 22.2881 27.3124 24.08 25.9401" stroke="inherit" stroke-width="2" stroke-linecap="round" stroke-linejoin="round"/>
</svg>
