<svg width="36" height="36" viewBox="0 0 36 36" fill="none" xmlns="http://www.w3.org/2000/svg">
<path d="M11 24H9C8.46957 24 7.96086 23.7893 7.58579 23.4142C7.21071 23.0391 7 22.5304 7 22V14C7 13.4696 7.21071 12.9609 7.58579 12.5858C7.96086 12.2107 8.46957 12 9 12H12.19M21 12H23C23.5304 12 24.0391 12.2107 24.4142 12.5858C24.7893 12.9609 25 13.4696 25 14V22C25 22.5304 24.7893 23.0391 24.4142 23.4142C24.0391 23.7893 23.5304 24 23 24H19.81" stroke="inherit" stroke-width="2" stroke-linecap="round" stroke-linejoin="round"/>
<path d="M29 19V17" stroke="inherit" stroke-width="2" stroke-linecap="round" stroke-linejoin="round"/>
<path d="M17 12L13 18H19L15 24" stroke="inherit" stroke-width="2" stroke-linecap="round" stroke-linejoin="round"/>
</svg>
