<svg width="36" height="36" viewBox="0 0 36 36" fill="none" xmlns="http://www.w3.org/2000/svg">
<path d="M18 28C23.5228 28 28 23.5228 28 18C28 12.4772 23.5228 8 18 8C12.4772 8 8 12.4772 8 18C8 23.5228 12.4772 28 18 28Z" stroke="inherit" stroke-width="2" stroke-linecap="round" stroke-linejoin="round"/>
<path fill-rule="evenodd" clip-rule="evenodd" d="M19.25 15.569H22.25V15.0759H19.25V15.569ZM21.788 18.1242H19.727V18.1143C19.727 17.5048 20.139 17.0334 20.765 17.0334C21.385 17.0334 21.788 17.4999 21.788 18.1143V18.1242ZM20.755 16.1548C19.401 16.1548 18.475 16.9802 18.475 18.3757V18.8106C18.475 20.2692 19.396 21.0857 20.808 21.0857C22.186 21.0857 22.855 20.3264 22.977 19.564H21.793C21.686 19.9506 21.327 20.1834 20.818 20.1834C20.168 20.1834 19.727 19.7258 19.727 19.0039V18.8737H23.025V18.4063C23.025 17.0374 22.157 16.1548 20.755 16.1548ZM15.219 20.0403H14.26V18.134H15.487C16.244 18.134 16.657 18.5048 16.657 19.1104C16.657 19.7208 16.24 20.0403 15.219 20.0403ZM14.26 15.5364H15.405C16.01 15.5364 16.364 15.8559 16.364 16.3766C16.364 16.9358 15.981 17.2504 15.113 17.2504H14.26V15.5364ZM16.518 17.6212V17.566C17.165 17.4102 17.64 16.9407 17.64 16.1617C17.64 15.1804 16.873 14.5828 15.703 14.5828H12.975V20.993H15.698C17.026 20.993 17.975 20.3313 17.975 19.1853C17.975 18.2238 17.304 17.6962 16.518 17.6212Z" fill="#263238"/>
</svg>
