<svg width="36" height="36" viewBox="0 0 36 36" fill="none" xmlns="http://www.w3.org/2000/svg">
<path d="M19.73 27C19.5542 27.3031 19.3019 27.5547 18.9982 27.7295C18.6946 27.9044 18.3504 27.9965 18 27.9965C17.6496 27.9965 17.3054 27.9044 17.0018 27.7295C16.6982 27.5547 16.4458 27.3031 16.27 27" stroke="inherit" stroke-width="2" stroke-linecap="round" stroke-linejoin="round"/>
<path d="M24.63 19C24.1852 17.3714 23.9731 15.688 24 14" stroke="inherit" stroke-width="2" stroke-linecap="round" stroke-linejoin="round"/>
<path d="M12.26 12.26C12.0863 12.8236 11.9986 13.4102 12 14C12 21 9 23 9 23H23" stroke="inherit" stroke-width="2" stroke-linecap="round" stroke-linejoin="round"/>
<path d="M24 14C24.0016 12.9131 23.7079 11.8461 23.1503 10.9131C22.5927 9.98007 21.7921 9.21605 20.8341 8.70263C19.8761 8.18921 18.7966 7.94569 17.7109 7.99806C16.6252 8.05043 15.5742 8.39674 14.67 8.99999" stroke="inherit" stroke-width="2" stroke-linecap="round" stroke-linejoin="round"/>
<path d="M7 7L29 29" stroke="inherit" stroke-width="2" stroke-linecap="round" stroke-linejoin="round"/>
</svg>
