<svg width="36" height="36" viewBox="0 0 36 36" fill="none" xmlns="http://www.w3.org/2000/svg">
<path d="M22.5491 23.4727V22.0327C22.5491 20.4421 21.2597 19.1527 19.6691 19.1527H16.0691C14.4785 19.1527 13.1891 20.4421 13.1891 22.0327V23.4727" stroke="inherit" stroke-width="2"/>
<path d="M24.48 18.1527C23.9277 18.1527 23.48 18.6004 23.48 19.1527C23.48 19.705 23.9277 20.1527 24.48 20.1527V18.1527ZM26 21.6727V23.4727H28V21.6727H26ZM24.48 20.1527C25.3195 20.1527 26 20.8332 26 21.6727H28C28 19.7287 26.424 18.1527 24.48 18.1527V20.1527Z" fill="#263238"/>
<path d="M11.52 18.1527C12.0723 18.1527 12.52 18.6004 12.52 19.1527C12.52 19.705 12.0723 20.1527 11.52 20.1527V18.1527ZM10 21.6727V23.4727H8.00001V21.6727H10ZM11.52 20.1527C10.6805 20.1527 10 20.8332 10 21.6727H8.00001C8.00001 19.7287 9.57597 18.1527 11.52 18.1527V20.1527Z" fill="#263238"/>
<path d="M18.0982 17.1891C19.2549 17.1891 20.1927 16.2513 20.1927 15.0946C20.1927 13.9378 19.2549 13 18.0982 13C16.9414 13 16.0036 13.9378 16.0036 15.0946C16.0036 16.2513 16.9414 17.1891 18.0982 17.1891Z" stroke="inherit" stroke-width="2" stroke-linecap="round" stroke-linejoin="round"/>
<path d="M22.6146 13.068C23.0651 13.1834 23.4644 13.4454 23.7496 13.8128C24.0348 14.1802 24.1896 14.632 24.1896 15.0971C24.1896 15.5622 24.0348 16.014 23.7496 16.3814C23.4644 16.7488 23.0651 17.0108 22.6146 17.1262" stroke="inherit" stroke-width="2" stroke-linecap="round" stroke-linejoin="round"/>
<path d="M13.3854 13.068C12.9349 13.1834 12.5356 13.4454 12.2504 13.8128C11.9652 14.1802 11.8104 14.632 11.8104 15.0971C11.8104 15.5622 11.9652 16.014 12.2504 16.3814C12.5356 16.7488 12.9349 17.0108 13.3854 17.1262" stroke="inherit" stroke-width="2" stroke-linecap="round" stroke-linejoin="round"/>
</svg>
