<svg width="36" height="36" viewBox="0 0 36 36" fill="none" xmlns="http://www.w3.org/2000/svg">
<path d="M8 9H14C15.0609 9 16.0783 9.42143 16.8284 10.1716C17.5786 10.9217 18 11.9391 18 13V27C18 26.2044 17.6839 25.4413 17.1213 24.8787C16.5587 24.3161 15.7956 24 15 24H8V9Z" stroke="inherit" stroke-width="1.76" stroke-linecap="round" stroke-linejoin="round"/>
<path d="M28 9H22C20.9391 9 19.9217 9.42143 19.1716 10.1716C18.4214 10.9217 18 11.9391 18 13V27C18 26.2044 18.3161 25.4413 18.8787 24.8787C19.4413 24.3161 20.2044 24 21 24H28V9Z" stroke="inherit" stroke-width="1.76" stroke-linecap="round" stroke-linejoin="round"/>
</svg>
