<svg width="36" height="36" viewBox="0 0 36 36" fill="none" xmlns="http://www.w3.org/2000/svg">
<path d="M0 9C0 4.02944 4.02944 0 9 0H27C31.9706 0 36 4.02944 36 9V27C36 31.9706 31.9706 36 27 36H9C4.02944 36 0 31.9706 0 27V9Z" fill="#E6E6E6"/>
<path d="M19.0272 18.9188C19.2296 18.9188 19.4136 18.9375 19.5976 18.975C20.628 19.1812 21.456 19.9312 21.8056 20.925C21.8976 21.2437 22.0448 21.7312 22.1184 22.05L22.2288 22.4813L22.6704 22.4625C26.148 22.4062 29 19.5188 29 15.9375C29 10.5188 24.5656 6 17.776 6C14.9792 6.01875 12.3296 7.05 10.324 8.71875C7.6744 10.9125 6 14.25 6 18C6 18.9563 6.1104 19.9312 6.3312 20.8125C7.104 24.075 9.1832 26.8312 11.98 28.4437C13.6728 29.4187 15.6968 30 17.776 30C18.2912 30 18.8064 29.9625 19.3032 29.9062C22.376 29.4937 25.0624 27.9 26.9208 25.575L27.0496 25.425L26.8104 24.5625L26.3504 24.6937C24.9336 25.0687 23.4984 25.275 21.9712 25.275C20.7568 25.275 19.5976 25.1438 18.4384 24.9C17.408 24.6938 16.5616 23.925 16.2304 22.9125C16.12 22.5938 16.0832 22.3125 16.0832 21.9562C16.0648 21.1687 16.3408 20.5312 16.8192 19.9875C17.3528 19.3125 18.144 18.9188 19.0272 18.9188ZM17.776 7.125C24.0504 7.125 27.896 11.2312 27.896 15.9375C27.896 18.75 25.7616 21.0563 23.0752 21.3375C23.0016 21.075 22.928 20.7938 22.8544 20.5875C21.1432 15.1313 17.0768 10.9125 11.8328 8.9625C13.544 7.78125 15.5496 7.125 17.776 7.125ZM7.104 18C7.104 14.7188 8.5392 11.775 10.784 9.7875C15.0712 11.1938 18.604 14.1938 20.6464 18.15C20.3888 18.0375 20.0944 17.9437 19.8 17.8687C18.604 17.625 17.3344 17.475 16.0648 17.475C12.8816 17.475 9.8456 18.3375 7.2328 19.8C7.1592 19.2188 7.104 18.6187 7.104 18ZM18.2176 25.9688C19.4136 26.2313 20.7016 26.3625 21.9712 26.3625C22.9464 26.3625 23.9216 26.2875 24.86 26.1188C23.3696 27.4688 21.5112 28.4062 19.4504 28.725C18.6592 27.7875 17.9784 26.775 17.4264 25.6875C17.6656 25.8188 17.9416 25.9125 18.2176 25.9688ZM18.1256 28.875C18.0152 28.875 17.8864 28.875 17.776 28.875C15.9912 28.875 14.3536 28.4438 12.8816 27.675C13.3048 25.7625 14.0224 24 15.016 22.3875C15.0528 22.6875 15.108 22.9688 15.2 23.2313C15.844 25.275 16.856 27.2062 18.1256 28.875ZM15.9912 19.2C14.0592 21.3938 12.624 24.1125 11.888 27.075C9.7904 25.65 8.208 23.4938 7.5088 20.9625C10.048 19.4625 12.9368 18.6188 16.0832 18.6188C16.2672 18.6188 16.4328 18.6188 16.6168 18.6188C16.3776 18.7875 16.1752 18.9938 15.9912 19.2Z" fill="#263238"/>
</svg>
