<svg width="36" height="36" viewBox="0 0 36 36" fill="none" xmlns="http://www.w3.org/2000/svg">
<path d="M7 7L29 29" stroke="inherit" stroke-width="2" stroke-linecap="round" stroke-linejoin="round"/>
<path d="M21.28 21.28C20.9481 21.765 20.5134 22.171 20.0068 22.469C19.5002 22.7669 18.9342 22.9496 18.3489 23.004C17.7637 23.0584 17.1737 22.9831 16.6209 22.7836C16.0681 22.5841 15.566 22.2652 15.1504 21.8496C14.7348 21.434 14.4159 20.9319 14.2164 20.3791C14.0169 19.8263 13.9416 19.2363 13.996 18.6511C14.0504 18.0658 14.2331 17.4998 14.531 16.9932C14.829 16.4866 15.235 16.0519 15.72 15.72M27 27H9C8.46957 27 7.96086 26.7893 7.58579 26.4142C7.21071 26.0391 7 25.5304 7 25V14C7 13.4696 7.21071 12.9609 7.58579 12.5858C7.96086 12.2107 8.46957 12 9 12H12L27 27ZM15 9H21L23 12H27C27.5304 12 28.0391 12.2107 28.4142 12.5858C28.7893 12.9609 29 13.4696 29 14V23.34L15 9Z" stroke="inherit" stroke-width="2" stroke-linecap="round" stroke-linejoin="round"/>
</svg>
