<svg width="36" height="36" viewBox="0 0 36 36" fill="none" xmlns="http://www.w3.org/2000/svg">
<path d="M0 9C0 4.02944 4.02944 0 9 0H27C31.9706 0 36 4.02944 36 9V27C36 31.9706 31.9706 36 27 36H9C4.02944 36 0 31.9706 0 27V9Z" fill="#E6E6E6"/>
<path fill-rule="evenodd" clip-rule="evenodd" d="M17.5935 6.19512C18.0488 5.93496 18.7642 5.93496 19.2195 6.19512L28 11.3984C28.4553 11.6585 28.813 12.2764 28.813 12.7967V23.2033C28.813 23.7236 28.4553 24.3415 28 24.6016L19.2195 29.8049C18.7642 30.065 18.0488 30.065 17.5935 29.8049L8.81301 24.6016C8.35772 24.3415 8 23.7561 8 23.2033V12.7967C8 12.2764 8.35772 11.6585 8.81301 11.3984L17.5935 6.19512ZM19.8374 14.9106C19.4472 14.9106 19.122 15.2033 19.122 15.5935V17.2195C19.122 17.4146 18.9268 17.6098 18.6992 17.6098C18.4715 17.6098 18.2764 17.4472 18.2764 17.2195V15.0081C18.2764 14.6504 17.9512 14.3252 17.561 14.3252C17.1707 14.3252 16.8455 14.6179 16.8455 15.0081V16.7967C16.8455 16.9919 16.6504 17.187 16.4228 17.187C16.1951 17.187 16 17.0244 16 16.7967V16.1463C16 15.7886 15.6748 15.4634 15.2846 15.4634C14.8943 15.4634 14.5691 15.7561 14.5691 16.1463V17.6748C14.5691 17.8699 14.374 18.065 14.1463 18.065C13.9187 18.065 13.7236 17.9024 13.7236 17.6748V17.5122C13.7236 17.122 13.3984 16.7967 13.0081 16.7967C12.6179 16.7967 12.2927 17.122 12.2927 17.5122V19.626C12.2927 20.0163 12.6179 20.3415 13.0081 20.3415C13.3984 20.3415 13.7236 20.0163 13.7236 19.626V19.4634C13.7236 19.2683 13.9187 19.0732 14.1463 19.0732C14.374 19.0732 14.5691 19.2358 14.5691 19.4634V21.9024C14.5691 22.2602 14.8943 22.5854 15.2846 22.5854C15.6748 22.5854 16 22.2927 16 21.9024V18.5528C16 18.3577 16.1951 18.1626 16.4228 18.1626C16.6504 18.1626 16.8455 18.3252 16.8455 18.5528V20.2114C16.8455 20.5691 17.1707 20.8943 17.561 20.8943C17.9512 20.8943 18.2764 20.6016 18.2764 20.2114V18.9756C18.2764 18.7805 18.4715 18.5854 18.6992 18.5854C18.9268 18.5854 19.122 18.748 19.122 18.9756V20.2764C19.122 20.6341 19.4472 20.9594 19.8374 20.9594C20.2276 20.9594 20.5528 20.6667 20.5528 20.2764V15.561C20.5528 15.2033 20.2276 14.9106 19.8374 14.9106ZM22.1138 16.7317C21.7236 16.7317 21.3984 17.0244 21.3984 17.4146V20.1138C21.3984 20.4715 21.7236 20.7967 22.1138 20.7967C22.5041 20.7967 22.8293 20.5041 22.8293 20.1138V17.4146C22.8293 17.0244 22.5041 16.7317 22.1138 16.7317ZM24.3902 18.0976C24 18.0976 23.6748 18.3902 23.6748 18.7805V19.4634C23.6748 19.8211 24 20.1463 24.3902 20.1463C24.7805 20.1463 25.1057 19.8537 25.1057 19.4634V18.7805C25.1057 18.3902 24.7805 18.0976 24.3902 18.0976Z" fill="#263238"/>
</svg>
