<svg width="36" height="36" viewBox="0 0 36 36" fill="none" xmlns="http://www.w3.org/2000/svg">
<path d="M8 14V12C8 11.4696 8.21071 10.9609 8.58579 10.5858C8.96086 10.2107 9.46957 10 10 10H26C26.5304 10 27.0391 10.2107 27.4142 10.5858C27.7893 10.9609 28 11.4696 28 12V24C28 24.5304 27.7893 25.0391 27.4142 25.4142C27.0391 25.7893 26.5304 26 26 26H20M8 22.1C8.96089 22.296 9.84294 22.7702 10.5364 23.4636C11.2298 24.1571 11.704 25.0391 11.9 26L8 22.1ZM8 18.05C10.0308 18.2759 11.9243 19.186 13.3691 20.6309C14.814 22.0757 15.7241 23.9692 15.95 26L8 18.05Z" stroke="inherit" stroke-width="2" stroke-linecap="round" stroke-linejoin="round"/>
<path d="M8 26H8.01" stroke="inherit" stroke-width="2" stroke-linecap="round" stroke-linejoin="round"/>
</svg>
