<svg width="36" height="36" viewBox="0 0 36 36" fill="none" xmlns="http://www.w3.org/2000/svg">
<g clip-path="url(#clip0_119:4985)">
<path d="M25 22.9C26.2151 22.6532 27.2953 21.9638 28.0307 20.9655C28.7661 19.9671 29.1043 18.7312 28.9797 17.4975C28.8551 16.2638 28.2765 15.1205 27.3563 14.2894C26.4361 13.4583 25.2399 12.9987 24 13H22.74C22.4087 11.7173 21.764 10.537 20.8639 9.56498C19.9638 8.59298 18.8363 7.85972 17.5828 7.43106C16.3293 7.00239 14.989 6.89173 13.6821 7.109C12.3753 7.32628 11.1429 7.86469 10.0955 8.6759C9.04814 9.48711 8.21862 10.5457 7.68143 11.7567C7.14424 12.9677 6.91618 14.2931 7.01775 15.614C7.11931 16.9349 7.54731 18.2098 8.26332 19.3245C8.97932 20.4391 9.96093 21.3584 11.12 22" stroke="inherit" stroke-width="2" stroke-linecap="round" stroke-linejoin="round"/>
<path d="M19 17L15 23H21L17 29" stroke="inherit" stroke-width="2" stroke-linecap="round" stroke-linejoin="round"/>
</g>
<defs>
<clipPath id="clip0_119:4985">
<rect width="24" height="24" fill="white" transform="translate(6 6)"/>
</clipPath>
</defs>
</svg>
