<svg width="36" height="36" viewBox="0 0 36 36" fill="none" xmlns="http://www.w3.org/2000/svg">
<g clip-path="url(#clip0_119:4990)">
<path d="M24 16H22.74C22.3659 14.551 21.5928 13.236 20.5086 12.2044C19.4245 11.1728 18.0727 10.466 16.6069 10.1643C15.1411 9.86256 13.6201 9.97804 12.2166 10.4976C10.8132 11.0171 9.58363 11.9199 8.66764 13.1034C7.75165 14.2868 7.18598 15.7035 7.0349 17.1924C6.88381 18.6812 7.15338 20.1826 7.81296 21.526C8.47255 22.8693 9.4957 24.0007 10.7662 24.7916C12.0366 25.5824 13.5035 26.0011 15 26H24C25.3261 26 26.5978 25.4732 27.5355 24.5355C28.4732 23.5979 29 22.3261 29 21C29 19.6739 28.4732 18.4021 27.5355 17.4645C26.5978 16.5268 25.3261 16 24 16Z" stroke="inherit" stroke-width="2" stroke-linecap="round" stroke-linejoin="round"/>
</g>
<defs>
<clipPath id="clip0_119:4990">
<rect width="24" height="24" fill="white" transform="translate(6 6)"/>
</clipPath>
</defs>
</svg>
