<svg width="36" height="36" viewBox="0 0 36 36" fill="none" xmlns="http://www.w3.org/2000/svg">
<g clip-path="url(#clip0_119:4987)">
<path d="M26 23.58C27.0512 23.1196 27.9121 22.3115 28.4381 21.2915C28.964 20.2715 29.1231 19.1016 28.8886 17.9782C28.654 16.8547 28.0402 15.8462 27.15 15.1218C26.2599 14.3974 25.1476 14.0013 24 14H22.74C22.423 12.7725 21.8188 11.6379 20.9773 10.6898C20.1357 9.74164 19.0809 9.00706 17.8997 8.54661C16.7186 8.08615 15.4449 7.913 14.1837 8.04143C12.9224 8.16986 11.7098 8.59618 10.6457 9.28527C9.58155 9.97436 8.69644 10.9065 8.06328 12.0048C7.43012 13.1031 7.06704 14.3362 7.00398 15.6023C6.94092 16.8685 7.17968 18.1316 7.70058 19.2873C8.22147 20.4431 9.00959 21.4586 9.99997 22.25" stroke="inherit" stroke-width="2" stroke-linecap="round" stroke-linejoin="round"/>
<path d="M14 22H14.01" stroke="inherit" stroke-width="2" stroke-linecap="round" stroke-linejoin="round"/>
<path d="M14 26H14.01" stroke="inherit" stroke-width="2" stroke-linecap="round" stroke-linejoin="round"/>
<path d="M18 24H18.01" stroke="inherit" stroke-width="2" stroke-linecap="round" stroke-linejoin="round"/>
<path d="M18 28H18.01" stroke="inherit" stroke-width="2" stroke-linecap="round" stroke-linejoin="round"/>
<path d="M22 22H22.01" stroke="inherit" stroke-width="2" stroke-linecap="round" stroke-linejoin="round"/>
<path d="M22 26H22.01" stroke="inherit" stroke-width="2" stroke-linecap="round" stroke-linejoin="round"/>
</g>
<defs>
<clipPath id="clip0_119:4987">
<rect width="24" height="24" fill="white" transform="translate(6 6)"/>
</clipPath>
</defs>
</svg>
