<svg width="36" height="36" viewBox="0 0 36 36" fill="none" xmlns="http://www.w3.org/2000/svg">
<g clip-path="url(#clip0_119:4988)">
<path d="M14 25V27" stroke="inherit" stroke-width="2" stroke-linecap="round" stroke-linejoin="round"/>
<path d="M14 19V21" stroke="inherit" stroke-width="2" stroke-linecap="round" stroke-linejoin="round"/>
<path d="M22 25V27" stroke="inherit" stroke-width="2" stroke-linecap="round" stroke-linejoin="round"/>
<path d="M22 19V21" stroke="inherit" stroke-width="2" stroke-linecap="round" stroke-linejoin="round"/>
<path d="M18 27V29" stroke="inherit" stroke-width="2" stroke-linecap="round" stroke-linejoin="round"/>
<path d="M18 21V23" stroke="inherit" stroke-width="2" stroke-linecap="round" stroke-linejoin="round"/>
<path d="M26 22.58C27.0512 22.1196 27.9121 21.3115 28.4381 20.2915C28.964 19.2715 29.1231 18.1016 28.8886 16.9782C28.654 15.8547 28.0402 14.8462 27.15 14.1218C26.2599 13.3974 25.1476 13.0013 24 13H22.74C22.423 11.7725 21.8188 10.6379 20.9773 9.68979C20.1357 8.74164 19.0809 8.00706 17.8997 7.54661C16.7186 7.08615 15.4449 6.913 14.1837 7.04143C12.9224 7.16986 11.7098 7.59618 10.6457 8.28527C9.58155 8.97436 8.69644 9.90647 8.06328 11.0048C7.43012 12.1031 7.06704 13.3362 7.00398 14.6023C6.94092 15.8685 7.17968 17.1316 7.70058 18.2873C8.22147 19.4431 9.00959 20.4586 9.99997 21.25" stroke="inherit" stroke-width="2" stroke-linecap="round" stroke-linejoin="round"/>
</g>
<defs>
<clipPath id="clip0_119:4988">
<rect width="24" height="24" fill="white" transform="translate(6 6)"/>
</clipPath>
</defs>
</svg>
