<svg width="36" height="36" viewBox="0 0 36 36" fill="none" xmlns="http://www.w3.org/2000/svg">
<path d="M21 11H15C13.8954 11 13 11.8954 13 13V23C13 24.1046 13.8954 25 15 25H21C22.1046 25 23 24.1046 23 23V13C23 11.8954 22.1046 11 21 11Z" stroke="inherit" stroke-width="2" stroke-linecap="round" stroke-linejoin="round"/>
<path d="M26.4 13H23V14.5556V21.4444V23H26.4C27.2837 23 28 22.3036 28 21.4444V14.5556C28 13.6964 27.2837 13 26.4 13Z" stroke="inherit" stroke-width="2" stroke-linecap="round" stroke-linejoin="round"/>
<path d="M13 13H9.6C8.71634 13 8 13.6964 8 14.5556V21.4444C8 22.3036 8.71634 23 9.6 23H13V21.4444V14.5556V13Z" stroke="inherit" stroke-width="2" stroke-linecap="round" stroke-linejoin="round"/>
</svg>
