<svg width="36" height="36" viewBox="0 0 36 36" fill="none" xmlns="http://www.w3.org/2000/svg">
<path d="M24 10H12C10.8954 10 10 10.8954 10 12V24C10 25.1046 10.8954 26 12 26H24C25.1046 26 26 25.1046 26 24V12C26 10.8954 25.1046 10 24 10Z" stroke="inherit" stroke-width="2" stroke-linecap="round" stroke-linejoin="round"/>
<path d="M21 15H15V21H21V15Z" stroke="inherit" stroke-width="2" stroke-linecap="round" stroke-linejoin="round"/>
<path d="M15 7V10" stroke="inherit" stroke-width="2" stroke-linecap="round" stroke-linejoin="round"/>
<path d="M21 7V10" stroke="inherit" stroke-width="2" stroke-linecap="round" stroke-linejoin="round"/>
<path d="M15 26V29" stroke="inherit" stroke-width="2" stroke-linecap="round" stroke-linejoin="round"/>
<path d="M21 26V29" stroke="inherit" stroke-width="2" stroke-linecap="round" stroke-linejoin="round"/>
<path d="M26 15H29" stroke="inherit" stroke-width="2" stroke-linecap="round" stroke-linejoin="round"/>
<path d="M26 20H29" stroke="inherit" stroke-width="2" stroke-linecap="round" stroke-linejoin="round"/>
<path d="M7 15H10" stroke="inherit" stroke-width="2" stroke-linecap="round" stroke-linejoin="round"/>
<path d="M7 20H10" stroke="inherit" stroke-width="2" stroke-linecap="round" stroke-linejoin="round"/>
</svg>
