<svg width="36" height="36" viewBox="0 0 36 36" fill="none" xmlns="http://www.w3.org/2000/svg">
<g clip-path="url(#clip0_119:4992)">
<path d="M14 23L18 27L22 23" stroke="inherit" stroke-width="2" stroke-linecap="round" stroke-linejoin="round"/>
<path d="M18 18V27" stroke="inherit" stroke-width="2" stroke-linecap="round" stroke-linejoin="round"/>
<path d="M26.8801 24.09C27.7494 23.4786 28.4014 22.6061 28.7413 21.5991C29.0813 20.5921 29.0915 19.503 28.7705 18.4898C28.4494 17.4766 27.8139 16.5921 26.9561 15.9646C26.0983 15.337 25.0629 14.9992 24.0001 15H22.7401C22.4393 13.8279 21.8765 12.7392 21.0942 11.8161C20.3118 10.8929 19.3302 10.1593 18.2233 9.67035C17.1163 9.18144 15.9129 8.95002 14.7036 8.99351C13.4943 9.037 12.3106 9.35426 11.2416 9.92142C10.1726 10.4886 9.24628 11.2908 8.53224 12.2678C7.81821 13.2448 7.33511 14.371 7.11932 15.5617C6.90353 16.7524 6.96067 17.9766 7.28643 19.142C7.6122 20.3074 8.19811 21.3838 9.00005 22.29" stroke="inherit" stroke-width="2" stroke-linecap="round" stroke-linejoin="round"/>
</g>
<defs>
<clipPath id="clip0_119:4992">
<rect width="24" height="24" fill="white" transform="translate(6 6)"/>
</clipPath>
</defs>
</svg>
