<svg width="36" height="36" viewBox="0 0 36 36" fill="none" xmlns="http://www.w3.org/2000/svg">
<path d="M17 10H10C9.46957 10 8.96086 10.2107 8.58579 10.5858C8.21071 10.9609 8 11.4696 8 12V26C8 26.5304 8.21071 27.0391 8.58579 27.4142C8.96086 27.7893 9.46957 28 10 28H24C24.5304 28 25.0391 27.7893 25.4142 27.4142C25.7893 27.0391 26 26.5304 26 26V19" stroke="inherit" stroke-width="2" stroke-linecap="round" stroke-linejoin="round"/>
<path d="M24.5 8.49998C24.8978 8.10216 25.4374 7.87866 26 7.87866C26.5626 7.87866 27.1022 8.10216 27.5 8.49998C27.8978 8.89781 28.1213 9.43737 28.1213 9.99998C28.1213 10.5626 27.8978 11.1022 27.5 11.5L18 21L14 22L15 18L24.5 8.49998Z" stroke="inherit" stroke-width="2" stroke-linecap="round" stroke-linejoin="round"/>
</svg>
