<svg width="36" height="36" viewBox="0 0 36 36" fill="none" xmlns="http://www.w3.org/2000/svg">
<path d="M23 9.00006C23.2626 8.73741 23.5744 8.52907 23.9176 8.38693C24.2608 8.24479 24.6286 8.17163 25 8.17163C25.3714 8.17163 25.7392 8.24479 26.0824 8.38693C26.4256 8.52907 26.7374 8.73741 27 9.00006C27.2626 9.2627 27.471 9.57451 27.6131 9.91767C27.7553 10.2608 27.8284 10.6286 27.8284 11.0001C27.8284 11.3715 27.7553 11.7393 27.6131 12.0825C27.471 12.4256 27.2626 12.7374 27 13.0001L13.5 26.5001L8 28.0001L9.5 22.5001L23 9.00006Z" stroke="inherit" stroke-width="2" stroke-linecap="round" stroke-linejoin="round"/>
</svg>
