<svg width="36" height="36" viewBox="0 0 36 36" fill="none" xmlns="http://www.w3.org/2000/svg">
<path d="M20.12 20.12C19.8454 20.4148 19.5141 20.6512 19.1462 20.8151C18.7782 20.9791 18.3809 21.0673 17.9781 21.0744C17.5753 21.0815 17.1752 21.0074 16.8016 20.8565C16.4281 20.7056 16.0887 20.4811 15.8038 20.1962C15.519 19.9113 15.2944 19.572 15.1435 19.1984C14.9926 18.8249 14.9185 18.4247 14.9256 18.0219C14.9327 17.6191 15.0209 17.2219 15.1849 16.8539C15.3488 16.4859 15.5853 16.1547 15.88 15.88M23.94 23.94C22.2306 25.243 20.1491 25.9649 18 26C11 26 7 18 7 18C8.24389 15.6819 9.96914 13.6566 12.06 12.06L23.94 23.94ZM15.9 10.24C16.5883 10.0789 17.2931 9.99836 18 10C25 10 29 18 29 18C28.393 19.1356 27.6691 20.2048 26.84 21.19L15.9 10.24Z" stroke="inherit" stroke-width="2" stroke-linecap="round" stroke-linejoin="round"/>
<path d="M7 7L29 29" stroke="inherit" stroke-width="2" stroke-linecap="round" stroke-linejoin="round"/>
</svg>
