<svg width="36" height="36" viewBox="0 0 36 36" fill="none" xmlns="http://www.w3.org/2000/svg">
<path d="M0 9C0 4.02944 4.02944 0 9 0H27C31.9706 0 36 4.02944 36 9V27C36 31.9706 31.9706 36 27 36H9C4.02944 36 0 31.9706 0 27V9Z" fill="#E6E6E6"/>
<path d="M8.40011 15.8665C7.60011 15.8665 7.06677 16.4887 7.06677 17.1998V18.7109C7.06677 19.5109 7.68899 20.0442 8.40011 20.0442C9.11122 20.0442 9.73344 19.422 9.73344 18.7109V17.2887C9.73344 16.4887 9.11122 15.8665 8.40011 15.8665Z" fill="#263238"/>
<path d="M27.5992 15.8665C26.7992 15.8665 26.2659 16.4887 26.2659 17.1998V18.7109C26.2659 19.5109 26.8881 20.0442 27.5992 20.0442C28.3103 20.0442 28.9325 19.422 28.9325 18.7109V17.2887C29.0214 16.4887 28.3992 15.8665 27.5992 15.8665Z" fill="#263238"/>
<path d="M13.111 20.4001C12.311 20.4001 11.7777 21.0224 11.7777 21.7335V23.2446C11.7777 24.0446 12.3999 24.6668 13.111 24.6668C13.8222 24.6668 14.4444 24.0446 14.4444 23.3335V21.8224C14.5333 21.0224 13.911 20.4001 13.111 20.4001Z" fill="#263238"/>
<path d="M13.111 11.3333C12.3999 11.3333 11.7777 11.9555 11.7777 12.7555V17.6444C11.7777 18.4444 12.3999 18.9777 13.111 18.9777C13.8222 18.9777 14.4444 18.4444 14.5333 17.6444V12.7555C14.5333 11.9555 13.911 11.3333 13.111 11.3333Z" fill="#263238"/>
<path d="M22.8888 11.3333C22.0888 11.3333 21.5554 11.9555 21.5554 12.6666V14.1777C21.5554 14.9777 22.1776 15.511 22.8888 15.511C23.5999 15.511 24.2221 14.8888 24.2221 14.1777V12.7555C24.2221 11.9555 23.5999 11.3333 22.8888 11.3333Z" fill="#263238"/>
<path d="M17.9998 6.97791C17.1998 6.97791 16.6665 7.60013 16.6665 8.40013V9.91124C16.6665 10.7112 17.2887 11.2446 17.9998 11.2446C18.7109 11.2446 19.3332 10.6223 19.3332 9.91124V8.40013C19.3332 7.60013 18.7998 6.97791 17.9998 6.97791Z" fill="#263238"/>
<path d="M17.9998 24.7556C17.1998 24.7556 16.6665 25.3778 16.6665 26.0889V27.6001C16.6665 28.4001 17.2887 28.9334 17.9998 28.9334C18.7109 28.9334 19.3332 28.4001 19.3332 27.6001V26.0889C19.3332 25.3778 18.7998 24.7556 17.9998 24.7556Z" fill="#263238"/>
<path d="M22.8888 17.0221C22.0888 17.0221 21.5554 17.6443 21.5554 18.3554V23.2443C21.5554 24.0443 22.1776 24.5777 22.8888 24.5777C23.5999 24.5777 24.2221 23.9554 24.2221 23.2443V18.3554C24.2221 17.6443 23.5999 17.0221 22.8888 17.0221Z" fill="#263238"/>
<path d="M19.3332 14.0001C19.3332 13.2001 18.7109 12.6667 17.9998 12.6667C17.2887 12.6667 16.6665 13.2001 16.6665 14.0001V17.3779V18.7112V22.0001C16.6665 22.8001 17.2887 23.3334 17.9998 23.3334C18.7109 23.3334 19.3332 22.8001 19.3332 22.0001V18.6223V17.3779V14.0001Z" fill="#263238"/>
</svg>
