<svg width="36" height="36" viewBox="0 0 36 36" fill="none" xmlns="http://www.w3.org/2000/svg">
<path d="M22 25.5454V23.5454C22 21.3363 20.2091 19.5454 18 19.5454H13C10.7909 19.5454 9 21.3363 9 23.5454V25.5454" stroke="inherit" stroke-width="2"/>
<path d="M23.5 18.5454C22.9477 18.5454 22.5 18.9931 22.5 19.5454C22.5 20.0977 22.9477 20.5454 23.5 20.5454V18.5454ZM26 23.0454V25.5454H28V23.0454H26ZM23.5 20.5454C24.8807 20.5454 26 21.6647 26 23.0454H28C28 20.5601 25.9853 18.5454 23.5 18.5454V20.5454Z" fill="#263238"/>
<path d="M15.8181 16.8182C17.4248 16.8182 18.7272 15.5157 18.7272 13.9091C18.7272 12.3024 17.4248 11 15.8181 11C14.2115 11 12.9091 12.3024 12.9091 13.9091C12.9091 15.5157 14.2115 16.8182 15.8181 16.8182Z" stroke="inherit" stroke-width="2" stroke-linecap="round" stroke-linejoin="round"/>
<path d="M20.9091 11.0945C21.5348 11.2547 22.0894 11.6186 22.4855 12.1289C22.8816 12.6392 23.0966 13.2667 23.0966 13.9127C23.0966 14.5586 22.8816 15.1862 22.4855 15.6964C22.0894 16.2067 21.5348 16.5706 20.9091 16.7308" stroke="inherit" stroke-width="2" stroke-linecap="round" stroke-linejoin="round"/>
</svg>
