<svg width="36" height="36" viewBox="0 0 36 36" fill="none" xmlns="http://www.w3.org/2000/svg">
<path d="M28 18H8" stroke="inherit" stroke-width="2" stroke-linecap="round" stroke-linejoin="round"/>
<path d="M11.45 11.11L8 18V24C8 24.5304 8.21071 25.0391 8.58579 25.4142C8.96086 25.7893 9.46957 26 10 26H26C26.5304 26 27.0391 25.7893 27.4142 25.4142C27.7893 25.0391 28 24.5304 28 24V18L24.55 11.11C24.3844 10.7768 24.1292 10.4964 23.813 10.3003C23.4967 10.1042 23.1321 10.0002 22.76 10H13.24C12.8679 10.0002 12.5033 10.1042 12.187 10.3003C11.8708 10.4964 11.6156 10.7768 11.45 11.11V11.11Z" stroke="inherit" stroke-width="2" stroke-linecap="round" stroke-linejoin="round"/>
<path d="M12 22H12.01" stroke="inherit" stroke-width="2" stroke-linecap="round" stroke-linejoin="round"/>
<path d="M16 22H16.01" stroke="inherit" stroke-width="2" stroke-linecap="round" stroke-linejoin="round"/>
</svg>
