<svg width="36" height="36" viewBox="0 0 36 36" fill="none" xmlns="http://www.w3.org/2000/svg">
<path d="M26.84 10.61C26.3292 10.099 25.7228 9.69364 25.0554 9.41708C24.3879 9.14052 23.6725 8.99817 22.95 8.99817C22.2275 8.99817 21.5121 9.14052 20.8446 9.41708C20.1772 9.69364 19.5708 10.099 19.06 10.61L18 11.67L16.94 10.61C15.9083 9.57831 14.509 8.99871 13.05 8.99871C11.591 8.99871 10.1917 9.57831 9.16 10.61C8.1283 11.6417 7.54871 13.041 7.54871 14.5C7.54871 15.959 8.1283 17.3583 9.16 18.39L10.22 19.45L18 27.23L25.78 19.45L26.84 18.39C27.351 17.8792 27.7563 17.2728 28.0329 16.6054C28.3095 15.9379 28.4518 15.2225 28.4518 14.5C28.4518 13.7775 28.3095 13.0621 28.0329 12.3946C27.7563 11.7272 27.351 11.1208 26.84 10.61V10.61Z" stroke="inherit" stroke-width="2" stroke-linecap="round" stroke-linejoin="round"/>
</svg>
