<svg width="36" height="36" viewBox="0 0 36 36" fill="none" xmlns="http://www.w3.org/2000/svg">
<path d="M18 28C23.5228 28 28 23.5228 28 18C28 12.4772 23.5228 8 18 8C12.4772 8 8 12.4772 8 18C8 23.5228 12.4772 28 18 28Z" stroke="inherit" stroke-width="2" stroke-linecap="round" stroke-linejoin="round"/>
<path d="M15.09 15C15.3251 14.3317 15.7891 13.7681 16.4 13.4092C17.0108 13.0502 17.7289 12.919 18.4272 13.0387C19.1255 13.1585 19.7588 13.5215 20.2151 14.0635C20.6713 14.6056 20.9211 15.2915 20.92 16C20.92 18 17.92 19 17.92 19" stroke="inherit" stroke-width="2" stroke-linecap="round" stroke-linejoin="round"/>
<path d="M18 23H18.01" stroke="inherit" stroke-width="2" stroke-linecap="round" stroke-linejoin="round"/>
</svg>
