<svg width="36" height="36" viewBox="0 0 36 36" fill="none" xmlns="http://www.w3.org/2000/svg">
<path d="M18 28C23.5228 28 28 23.5228 28 18C28 12.4772 23.5228 8 18 8C12.4772 8 8 12.4772 8 18C8 23.5228 12.4772 28 18 28Z" stroke="inherit" stroke-width="2" stroke-linecap="round" stroke-linejoin="round"/>
<path fill-rule="evenodd" clip-rule="evenodd" d="M15.667 13.2012H20.5893C21.3409 13.2012 21.9276 13.4181 22.3767 13.8611C22.78 14.304 23 14.8735 23 15.5786V20.4329C23 21.138 22.78 21.7527 22.3309 22.1505C21.9276 22.5482 21.3042 22.7652 20.5893 22.7652H15.7128C14.9978 22.7652 14.4204 22.5482 13.9712 22.1505C13.5221 21.7075 13.3021 21.0928 13.3021 20.3877V15.5334C13.3021 14.8283 13.5221 14.2136 13.9254 13.8159C14.3287 13.4181 14.952 13.2012 15.667 13.2012ZM15.0803 17.9561C15.0803 19.5923 16.4278 20.9573 18.1235 20.9573C19.8285 20.9573 21.2126 19.6375 21.2126 17.9561C21.2126 16.2747 19.7826 14.9549 18.1235 14.9549C16.4644 14.9549 15.0803 16.2837 15.0803 17.9561ZM20.5893 14.8283C20.5893 15.2261 20.9009 15.5334 21.3042 15.5334C21.6984 15.5334 22.0192 15.2261 22.0192 14.8283C22.0192 14.4306 21.7076 14.1232 21.3042 14.1232C20.9009 14.1232 20.5893 14.4306 20.5893 14.8283ZM20.0943 17.965C20.0943 19.0384 19.2119 19.9086 18.1235 19.9086C17.0351 19.9086 16.1528 19.0384 16.1528 17.965C16.1528 16.8916 17.0351 16.0215 18.1235 16.0215C19.2119 16.0215 20.0943 16.8916 20.0943 17.965Z" fill="#263238"/>
</svg>
