<svg width="36" height="36" viewBox="0 0 36 36" fill="none" xmlns="http://www.w3.org/2000/svg">
<path d="M24.3334 18.7458C24.3001 15.7087 26.8082 14.2483 26.9244 14.1819C25.5292 12.1239 23.3202 11.8418 22.5395 11.8086C20.6627 11.6261 18.8854 12.904 17.9387 12.904C16.9919 12.904 15.5303 11.8252 13.969 11.8584C11.9427 11.8916 10.0658 13.0367 9.00277 14.8623C6.89336 18.5301 8.45466 23.9736 10.5308 26.9609C11.544 28.4214 12.7399 30.0644 14.3178 29.998C15.8459 29.9317 16.4106 29.0189 18.2543 29.0189C20.0979 29.0189 20.6128 29.998 22.2239 29.9648C23.8683 29.9317 24.8981 28.4878 25.8946 27.0107C27.0573 25.3179 27.5224 23.6749 27.5556 23.5919C27.5224 23.5919 24.3666 22.3804 24.3334 18.7458Z" fill="#263238"/>
<path d="M21.3105 9.83372C22.1576 8.82135 22.7223 7.41068 22.5728 6C21.3603 6.04979 19.8987 6.79662 19.035 7.82558C18.2543 8.72177 17.5733 10.1656 17.756 11.5431C19.1014 11.6427 20.48 10.8461 21.3105 9.83372Z" fill="#263238"/>
</svg>
