<svg width="60" height="60" viewBox="0 0 60 60" fill="none" xmlns="http://www.w3.org/2000/svg">
<path d="M0 30C0 13.4315 13.4315 0 30 0C46.5685 0 60 13.4315 60 30C60 46.5685 46.5685 60 30 60C13.4315 60 0 46.5685 0 30Z" fill="#00C1F2"/>
<path d="M47.5758 27.7637C46.7198 24.0431 44.4726 20.6414 41.4763 18.3027C38.48 15.964 34.7347 14.9009 30.9893 15.0072C30.5613 15.0072 30.1332 15.4325 30.1332 15.8577C30.1332 16.3892 30.4543 16.8144 30.9893 16.8144C34.3066 16.9207 37.4099 18.1964 39.7641 20.3224C42.1183 22.4485 43.7235 25.3187 44.1515 28.4015C44.5796 31.4844 44.0445 34.5672 42.4394 37.1185C40.9412 39.6698 38.48 41.6896 35.8048 42.6463C33.0225 43.603 30.0262 43.603 27.351 42.6463C24.6757 41.6896 22.4285 39.8824 21.0374 37.5437C19.6463 35.205 19.1112 32.4411 19.5393 29.8898C19.8603 27.6574 20.9304 25.6376 22.3215 24.0431L24.2477 25.9566C24.5687 26.2755 25.1038 26.0629 25.1038 25.6376V16.0703C25.1038 15.7514 24.8898 15.5388 24.5687 15.5388H14.9379C14.5098 15.5388 14.2958 16.0703 14.6168 16.3892L16.543 18.3027C13.9748 21.3855 12.3696 25.3187 12.0486 29.252C11.7276 33.5041 13.0117 37.8626 15.4729 41.3706C17.9341 44.7724 21.5725 47.3237 25.6388 48.3867C29.7052 49.4497 33.9856 49.1308 37.7309 47.43C41.4763 45.7291 44.4726 42.8589 46.1847 39.2446C48.0039 35.6302 48.4319 31.5907 47.5758 27.7637Z" fill="white"/>
</svg>
