<svg width="60" height="60" viewBox="0 0 60 60" fill="none" xmlns="http://www.w3.org/2000/svg">
<path d="M0 30C0 13.4315 13.4315 0 30 0C46.5685 0 60 13.4315 60 30C60 46.5685 46.5685 60 30 60C13.4315 60 0 46.5685 0 30Z" fill="#00C1F2"/>
<path d="M45.3307 27.0709C44.5751 26.9769 42.9696 26.883 41.1751 26.695C37.6807 26.3191 32.9585 25.8493 30.314 25.7553C30.1252 25.3794 29.8418 25.0975 29.3696 24.9096C28.9918 23.406 28.2363 21.2447 27.1974 19.0833C25.6863 16.1702 24.1752 14.0089 22.664 12.5993L22.5696 12.5053C20.964 11.9415 18.9807 11.2837 18.5085 11.9415C18.1307 12.4114 18.6029 13.1631 18.7918 13.3511C19.264 14.0089 20.2085 15.4185 21.2474 17.016C23.2307 20.0231 25.5918 23.594 27.1974 25.6613C27.1029 25.8493 27.0085 25.9433 27.0085 26.1312C27.0085 26.2252 27.0085 26.2252 27.0085 26.3191C25.5918 26.883 23.7029 27.7287 21.814 28.8564C19.1696 30.5479 17.1863 32.2393 15.7696 34.1188L15.6752 34.2128C15.1085 35.8103 14.6363 37.7837 15.3918 38.3475C15.9585 38.7234 16.5252 38.1596 16.8085 37.9716C17.3752 37.5018 18.6029 36.4681 20.0196 35.3404C22.4752 33.367 25.7807 30.6418 27.764 28.8564L25.9696 48.7783C25.9696 48.8723 25.9696 49.6241 25.9696 49.718L26.064 50H32.014L32.1085 49.718C32.1085 49.5301 32.1085 48.7783 32.1085 48.6844L29.9363 28.1986C31.3529 28.8564 33.2418 29.5142 35.414 29.984C38.4363 30.6418 41.0807 30.8298 43.4418 30.5479H43.5363C45.0474 29.7961 46.8418 28.6684 46.6529 27.8227C46.464 27.1649 45.614 27.1649 45.3307 27.0709Z" fill="white"/>
</svg>
