<svg width="60" height="60" viewBox="0 0 60 60" fill="none" xmlns="http://www.w3.org/2000/svg">
<path d="M0 30C0 13.4315 13.4315 0 30 0C46.5685 0 60 13.4315 60 30C60 46.5685 46.5685 60 30 60C13.4315 60 0 46.5685 0 30Z" fill="#1287B3"/>
<path d="M28.5412 42.8327L17.2471 31.4694L34.3765 14.3265L45.6706 25.6898L28.5412 42.8327ZM19.6 40.4816C19.1294 39.9918 19.1294 39.2082 19.6 38.7184C20.0706 38.2286 20.8235 38.2286 21.3882 38.7184C21.8588 39.2082 21.8588 39.9918 21.3882 40.4816C20.8235 40.9714 20.0706 40.9714 19.6 40.4816ZM47.3647 23.7306L36.2588 12.6612C35.4118 11.7796 34.0941 11.7796 33.2471 12.6612L12.6353 33.2327C11.7882 34.1143 11.7882 35.4857 12.6353 36.2694L23.7412 47.3388C24.5882 48.2204 25.9059 48.2204 26.7529 47.3388L47.3647 26.7673C48.2118 25.9837 48.2118 24.6122 47.3647 23.7306Z" fill="white"/>
</svg>
