<svg width="60" height="60" viewBox="0 0 60 60" fill="none" xmlns="http://www.w3.org/2000/svg">
<path d="M0 30C0 13.4315 13.4315 0 30 0C46.5685 0 60 13.4315 60 30C60 46.5685 46.5685 60 30 60C13.4315 60 0 46.5685 0 30Z" fill="#1287B3"/>
<path d="M24.6537 36.2632C24.1821 35.6972 22.7673 34.0938 22.2014 33.5279C21.6355 32.9619 20.315 31.3585 19.7491 30.7926C18.9002 29.8494 17.4854 29.9437 16.6365 30.8869C15.6933 31.8301 15.1274 33.5279 15.9763 34.5654C16.8251 35.6029 17.674 36.2632 18.4286 37.3007C19.1832 38.3382 20.1264 39.0928 20.8809 40.036C21.6355 40.9792 22.5787 41.9224 23.4276 42.9599C24.2765 43.9974 26.1629 43.5258 27.1061 42.5826C28.0493 41.6394 28.1436 40.1303 27.2947 39.1871C26.6345 38.5269 25.2197 36.9234 24.6537 36.2632Z" fill="white"/>
<path d="M40.877 33.4331C34.1803 26.2648 37.6701 30.0376 34.0859 26.1705C34.0859 26.1705 33.0484 25.0386 31.5393 25.6989C30.5018 26.1705 29.2756 26.8307 28.2381 27.3023C27.2006 27.8682 26.446 28.0569 26.0687 28.0569C23.9937 28.0569 22.2959 26.2648 22.2959 24.0954C22.2959 22.6806 23.0505 21.4545 24.088 20.6999C25.5971 19.568 28.9926 17.6816 28.9926 17.6816C28.9926 17.6816 27.9551 16.2668 25.6914 16.2668C23.4277 16.2668 18.6174 19.6624 18.6174 19.6624C18.6174 19.6624 17.6742 20.0396 16.448 19.7567C15.6935 19.6624 14.9389 20.134 14.6559 20.8885L12.1093 28.5285C11.8263 29.283 12.1093 30.1319 12.7695 30.6035C13.2411 30.9808 13.9014 31.2638 14.2787 31.4524C14.4673 30.7922 14.8446 30.2262 15.3162 29.6603C16.9196 28.0569 19.5606 28.0569 20.9754 29.6603C21.447 30.1319 22.9561 31.924 23.4277 32.3956C23.8993 32.8672 25.4085 34.6593 25.8801 35.1309C26.3517 35.6968 27.9551 37.5832 28.4267 38.0548C29.6529 39.3753 29.6529 41.8277 28.7097 43.0538C28.7097 43.0538 28.8983 43.2425 29.1813 43.6197C29.5586 44.1857 30.3131 44.563 31.0677 44.3743C31.6336 44.28 32.1995 43.8084 32.3882 43.1481C32.6711 42.4879 32.5768 41.8277 32.1995 41.2617C32.5768 41.7333 33.1427 41.922 33.803 41.922C34.5575 41.8277 35.2178 41.2617 35.4064 40.4129C35.5008 39.8469 35.4064 39.3753 35.2178 38.9037C35.5951 39.281 36.2553 39.564 36.9156 39.3753C37.4815 39.281 38.0474 38.8094 38.236 38.2435C38.519 37.5832 38.4247 37.0173 38.1417 36.5457C38.519 36.8287 38.9906 37.0173 39.4622 37.0173C40.4997 37.0173 41.4429 36.1684 41.4429 35.0366C41.4429 34.6593 41.3486 34.282 41.16 33.9991C41.0657 33.7161 40.9713 33.5275 40.877 33.4331Z" fill="white"/>
<path d="M47.9509 29.5659L45.8758 22.1146C45.5928 21.077 44.461 20.4168 43.5178 20.8884L43.2348 20.9827C42.2916 21.1714 41.7257 20.6998 41.7257 20.6998C41.7257 20.6998 39.9336 19.002 37.9529 17.2099C36.3494 15.7008 35.5006 15.7951 34.2744 16.4553C32.2937 17.5872 27.672 20.4168 25.4083 21.8316C24.5594 22.3032 23.9935 22.9635 23.9935 24.001C23.9935 25.3215 25.5026 26.9249 27.389 25.8874C28.3322 25.4158 30.03 24.4726 31.5391 23.5294C33.2369 22.5862 34.3687 23.718 34.3687 23.718C34.3687 23.718 40.5939 30.3204 42.2916 32.1125C43.4235 33.2444 45.0269 32.7728 45.4985 32.6785C45.7815 32.6785 46.5361 32.2069 47.1963 31.7353C47.7622 31.2636 48.1395 30.4148 47.9509 29.5659Z" fill="white"/>
</svg>
