<svg width="60" height="60" viewBox="0 0 60 60" fill="none" xmlns="http://www.w3.org/2000/svg">
<path d="M0 30C0 13.4315 13.4315 0 30 0C46.5685 0 60 13.4315 60 30C60 46.5685 46.5685 60 30 60C13.4315 60 0 46.5685 0 30Z" fill="#1287B3"/>
<path d="M41.5042 21.4912C41.5042 21.3121 41.5042 21.2225 41.5042 21.0434C41.5042 17.82 38.9075 15.3128 35.7736 15.3128C35.5945 15.3128 35.4154 15.3128 35.2363 15.3128C34.3409 13.3429 32.371 11.9998 30.043 11.9998C27.7149 11.9998 25.745 13.3429 24.8496 15.3128C24.6705 15.3128 24.4914 15.3128 24.3123 15.3128C21.0889 15.3128 18.5817 17.9095 18.5817 21.0434C18.5817 21.2225 18.5817 21.3121 18.5817 21.4912C16.5223 22.3866 15.0001 24.446 15.0001 26.8636C15.0001 30.0871 17.5968 32.6838 20.8202 32.6838H20.9098C21.8947 34.4746 23.7751 35.6386 25.9241 35.6386C26.1927 33.9374 26.2822 31.8779 25.745 29.908C25.745 29.908 24.6705 29.2812 22.0738 29.908C21.6261 29.9976 21.1784 29.7289 21.0889 29.2812C20.9993 28.8335 21.2679 28.3858 21.7156 28.2963C23.1483 28.0277 24.2228 27.9381 24.9391 28.0277C24.2228 26.6845 23.1483 25.431 21.447 24.6251C21.0889 24.446 20.9098 23.9088 21.0889 23.5506C21.2679 23.1924 21.8052 23.0134 22.1633 23.1924C22.7006 23.4611 23.2378 23.8192 23.6855 24.1774L23.9542 22.6552C24.0437 22.2075 24.4914 21.9389 24.9391 22.0284C25.3868 22.1179 25.6554 22.5656 25.5659 23.0134L25.1182 25.5205C30.7593 31.8779 25.2973 45.6672 24.1332 47.279H35.8631C34.6991 45.6672 29.2371 31.8779 34.8782 25.5205L34.4305 23.0134C34.3409 22.5656 34.6095 22.1179 35.0573 22.0284C35.505 21.9389 35.9527 22.2075 36.0422 22.6552L36.3108 24.1774C36.7585 23.8192 37.2062 23.5506 37.833 23.1924C38.1912 23.0134 38.7284 23.1029 38.9075 23.5506C39.0866 23.9088 38.9971 24.446 38.5494 24.6251C36.9376 25.5205 35.7736 26.6845 35.0573 28.0277C35.8631 27.9381 36.8481 27.9381 38.2807 28.2963C38.7284 28.3858 38.9971 28.8335 38.9075 29.2812C38.818 29.7289 38.3703 29.9976 37.9226 29.908C35.3259 29.3708 34.3409 29.908 34.2514 29.908C33.7141 31.8779 33.8037 33.9374 34.0723 35.6386C36.2213 35.6386 38.1016 34.4746 39.0866 32.6838H39.1761C42.3996 32.6838 44.9963 30.0871 44.9963 26.8636C45.0858 24.446 43.5637 22.3866 41.5042 21.4912Z" fill="white"/>
</svg>
