<svg width="60" height="60" viewBox="0 0 60 60" fill="none" xmlns="http://www.w3.org/2000/svg">
<path d="M0 30C0 13.4315 13.4315 0 30 0C46.5685 0 60 13.4315 60 30C60 46.5685 46.5685 60 30 60C13.4315 60 0 46.5685 0 30Z" fill="#1287B3"/>
<path d="M49.676 20.0661L41.4691 12.3063C41.0371 11.8979 40.2812 11.8979 39.8493 12.3063L16.4162 34.3604C16.2002 34.5646 16.0922 34.6667 16.0922 34.973L14.0405 44.6727C13.9325 45.0811 14.0405 45.3874 14.3645 45.6937C14.5804 45.8979 14.9044 46 15.2283 46C15.3363 46 15.3363 46 15.4443 46L25.703 44.0601C25.919 44.0601 26.135 43.958 26.351 43.7538L49.676 21.6997C50.108 21.1892 50.108 20.4745 49.676 20.0661ZM16.6322 41.4054L17.82 35.7898L24.7312 42.2222L18.7919 43.3453L16.6322 41.4054Z" fill="white"/>
</svg>
