<svg width="60" height="60" viewBox="0 0 60 60" fill="none" xmlns="http://www.w3.org/2000/svg">
<path d="M0 30C0 13.4315 13.4315 0 30 0C46.5685 0 60 13.4315 60 30C60 46.5685 46.5685 60 30 60C13.4315 60 0 46.5685 0 30Z" fill="#1287B3"/>
<path d="M35.7302 30.3069H24.9365C24.3016 30.3069 23.8783 29.7778 23.8783 29.2487C23.8783 28.7196 24.4074 28.1905 24.9365 28.1905H35.7302C36.3651 28.1905 36.7884 28.7196 36.7884 29.2487C36.7884 29.7778 36.3651 30.3069 35.7302 30.3069ZM35.7302 36.127H24.9365C24.3016 36.127 23.8783 35.5979 23.8783 35.0688C23.8783 34.4339 24.4074 34.0106 24.9365 34.0106H35.7302C36.3651 34.0106 36.7884 34.5397 36.7884 35.0688C36.8942 35.5979 36.3651 36.127 35.7302 36.127ZM35.7302 41.8413H24.9365C24.3016 41.8413 23.8783 41.3122 23.8783 40.7831C23.8783 40.1481 24.4074 39.7249 24.9365 39.7249H35.7302C36.3651 39.7249 36.7884 40.254 36.7884 40.7831C36.8942 41.3122 36.3651 41.8413 35.7302 41.8413ZM42.7143 22.4762H34.3545C33.7196 22.4762 33.2963 21.9471 33.2963 21.418V13.0582C33.2963 12.4233 32.7672 12 32.2381 12H18.0582C17.4233 12 17 12.5291 17 13.0582V47.5556C17 48.1905 17.5291 48.6138 18.0582 48.6138H42.7143C43.3492 48.6138 43.7725 48.0847 43.7725 47.5556V23.5344C43.7725 23.0053 43.2434 22.4762 42.7143 22.4762Z" fill="white"/>
</svg>
