<svg width="60" height="60" viewBox="0 0 60 60" fill="none" xmlns="http://www.w3.org/2000/svg">
<path d="M0 30C0 13.4315 13.4315 0 30 0V0C46.5685 0 60 13.4315 60 30V30C60 46.5685 46.5685 60 30 60V60C13.4315 60 0 46.5685 0 30V30Z" fill="#00C1F2"/>
<path d="M46.972 21.2976C46.972 20.9913 46.7672 20.685 46.46 20.5829C46.1528 20.4808 45.8456 20.5829 45.6408 20.7871L41.2375 25.1772L36.3221 23.6458L34.7861 18.7452L39.1894 14.3552C39.3942 14.151 39.4966 13.8447 39.3942 13.5384C39.2918 13.2321 38.9846 13.0279 38.6774 13.0279C36.0149 12.8237 33.3525 13.7426 31.5092 15.6824C28.1111 18.7452 29.5636 26.1982 29.5636 26.1982L14.3056 39.4705C12.5648 41.2061 12.5648 43.9627 14.3056 45.6983C16.0465 47.4339 18.8113 47.4339 20.5522 45.6983L33.7621 30.3841C33.7621 30.3841 40.3889 32.3611 44.3095 28.4443C46.2552 26.5044 47.1768 23.9521 46.972 21.2976Z" fill="white"/>
</svg>
