<svg width="36" height="36" viewBox="0 0 36 36" fill="none" xmlns="http://www.w3.org/2000/svg">
<path d="M21.5 13.5L25 10M27 8L25 10L27 8ZM17.39 17.61C17.9064 18.1195 18.3168 18.726 18.5978 19.3948C18.8787 20.0635 19.0246 20.7813 19.0271 21.5066C19.0295 22.232 18.8884 22.9507 18.6119 23.6213C18.3355 24.2919 17.9291 24.9012 17.4162 25.4141C16.9033 25.9271 16.294 26.3334 15.6233 26.6099C14.9527 26.8864 14.234 27.0275 13.5087 27.025C12.7833 27.0226 12.0656 26.8767 11.3968 26.5958C10.7281 26.3148 10.1215 25.9043 9.61203 25.388C8.61016 24.3507 8.05579 22.9614 8.06832 21.5193C8.08085 20.0772 8.65928 18.6977 9.67903 17.678C10.6988 16.6583 12.0782 16.0798 13.5203 16.0673C14.9624 16.0548 16.3517 16.6091 17.389 17.611L17.39 17.61ZM17.39 17.61L21.5 13.5L17.39 17.61ZM21.5 13.5L24.5 16.5L28 13L25 10L21.5 13.5Z" stroke="inherit" stroke-width="2" stroke-linecap="round" stroke-linejoin="round"/>
</svg>
