<svg width="36" height="36" viewBox="0 0 36 36" fill="none" xmlns="http://www.w3.org/2000/svg">
<path d="M16 19C16.4295 19.5742 16.9774 20.0492 17.6066 20.393C18.2357 20.7367 18.9315 20.9411 19.6467 20.9924C20.3618 21.0436 21.0796 20.9404 21.7513 20.6898C22.4231 20.4392 23.0331 20.0471 23.54 19.54L26.54 16.54C27.4508 15.597 27.9548 14.334 27.9434 13.023C27.932 11.712 27.4061 10.458 26.4791 9.53093C25.5521 8.60389 24.298 8.07805 22.987 8.06666C21.676 8.05526 20.413 8.55924 19.47 9.47003L17.75 11.18" stroke="inherit" stroke-width="2" stroke-linecap="round" stroke-linejoin="round"/>
<path d="M20 17C19.5706 16.4259 19.0227 15.9508 18.3935 15.607C17.7643 15.2633 17.0685 15.0589 16.3534 15.0076C15.6382 14.9564 14.9204 15.0596 14.2487 15.3102C13.5769 15.5608 12.9669 15.9529 12.46 16.46L9.46002 19.46C8.54923 20.403 8.04525 21.666 8.05665 22.977C8.06804 24.288 8.59388 25.542 9.52092 26.4691C10.448 27.3961 11.702 27.922 13.013 27.9334C14.324 27.9447 15.587 27.4408 16.53 26.53L18.24 24.82" stroke="inherit" stroke-width="2" stroke-linecap="round" stroke-linejoin="round"/>
</svg>
