<svg width="36" height="36" viewBox="0 0 36 36" fill="none" xmlns="http://www.w3.org/2000/svg">
<path d="M21 13H24C24.6566 13 25.3068 13.1293 25.9134 13.3806C26.52 13.6319 27.0712 14.0002 27.5355 14.4645C27.9998 14.9288 28.3681 15.48 28.6194 16.0866C28.8707 16.6932 29 17.3434 29 18C29 18.6566 28.8707 19.3068 28.6194 19.9134C28.3681 20.52 27.9998 21.0712 27.5355 21.5355C27.0712 21.9998 26.52 22.3681 25.9134 22.6194C25.3068 22.8707 24.6566 23 24 23H21M15 23H12C11.3434 23 10.6932 22.8707 10.0866 22.6194C9.47995 22.3681 8.92876 21.9998 8.46447 21.5355C7.52678 20.5979 7 19.3261 7 18C7 16.6739 7.52678 15.4021 8.46447 14.4645C9.40215 13.5268 10.6739 13 12 13H15" stroke="inherit" stroke-width="2" stroke-linecap="round" stroke-linejoin="round"/>
<path d="M14 18H22" stroke="inherit" stroke-width="2" stroke-linecap="round" stroke-linejoin="round"/>
</svg>
