<svg width="36" height="36" viewBox="0 0 36 36" fill="none" xmlns="http://www.w3.org/2000/svg">
<path d="M18 28C23.5228 28 28 23.5228 28 18C28 12.4772 23.5228 8 18 8C12.4772 8 8 12.4772 8 18C8 23.5228 12.4772 28 18 28Z" stroke="inherit" stroke-width="2" stroke-linecap="round" stroke-linejoin="round"/>
<path fill-rule="evenodd" clip-rule="evenodd" d="M15.1024 22.7652H13.0719V16.2441H15.1024V22.7652ZM14.0422 14.9612H14.0243C13.3953 14.9612 13 14.5069 13 13.9367C13 13.3488 13.4133 12.9033 14.0512 12.9033C14.6891 12.9033 15.0755 13.3488 15.0934 13.9367C15.1024 14.5069 14.6891 14.9612 14.0422 14.9612ZM22.991 22.7652H20.9425V19.0503C20.9425 18.1594 20.4394 17.6962 19.6307 17.6962C19.0198 17.6962 18.6514 18.106 18.4897 18.5069C18.4358 18.6494 18.4178 18.8454 18.4178 19.0503V22.7652H16.3783C16.3783 22.7652 16.4052 16.832 16.3783 16.2084H18.4178L18.3998 17.0815C18.6963 16.6271 19.2264 15.959 20.4304 15.959C21.8949 15.959 23 16.9122 23 18.9523V22.7652H22.991Z" fill="#263238"/>
</svg>
