<svg width="36" height="36" viewBox="0 0 36 36" fill="none" xmlns="http://www.w3.org/2000/svg">
<path d="M25 17H11C9.89543 17 9 17.8954 9 19V26C9 27.1046 9.89543 28 11 28H25C26.1046 28 27 27.1046 27 26V19C27 17.8954 26.1046 17 25 17Z" stroke="inherit" stroke-width="2" stroke-linecap="round" stroke-linejoin="round"/>
<path d="M13 17V13C13 11.6739 13.5268 10.4021 14.4645 9.46447C15.4021 8.52678 16.6739 8 18 8C19.3261 8 20.5979 8.52678 21.5355 9.46447C22.4732 10.4021 23 11.6739 23 13V17" stroke="inherit" stroke-width="2" stroke-linecap="round" stroke-linejoin="round"/>
</svg>
