<svg xmlns="http://www.w3.org/2000/svg" width="24" height="24" viewBox="0 0 24 24" fill="none">
<path fill-rule="evenodd" clip-rule="evenodd" d="M12 21.4861C7.30878 21.4861 3.42231 18.1566 2.73458 13.8291H21.2661C20.5777 18.1566 16.6912 21.4861 12 21.4861ZM17.3659 2.14803C16.7206 1.83569 15.9348 2.0877 15.6112 2.70861C15.2883 3.32889 15.5491 4.08492 16.195 4.39537C19.3964 5.93634 21.3851 9.02832 21.3851 12.4641C21.3851 12.4999 21.3798 12.5357 21.3798 12.5722H2.62083C2.62018 12.5357 2.61495 12.4999 2.61495 12.4641C2.61495 9.02832 4.60362 5.93634 7.80497 4.39475C8.45086 4.08366 8.7117 3.32826 8.38876 2.70798C8.06516 2.0877 7.27936 1.83569 6.63413 2.1474C2.54173 4.1176 0 8.07056 0 12.4641C0 18.8253 5.38287 23.9999 12 23.9999C18.6171 23.9999 24 18.8253 24 12.4641C24 8.07056 21.4583 4.1176 17.3659 2.14803Z" fill="#263238"/>
<path fill-rule="evenodd" clip-rule="evenodd" d="M11.9065 3.77069C12.9898 3.77069 13.8677 2.92606 13.8677 1.88535C13.8677 0.844006 12.9898 0 11.9065 0C10.8233 0 9.94531 0.844006 9.94531 1.88535C9.94531 2.92606 10.8233 3.77069 11.9065 3.77069Z" fill="#263238"/>
<path fill-rule="evenodd" clip-rule="evenodd" d="M9.94543 8.11038C10.8332 8.11038 11.553 7.41783 11.553 6.5644C11.553 5.71096 10.8332 5.01904 9.94543 5.01904C9.05766 5.01904 8.33789 5.71096 8.33789 6.5644C8.33789 7.41783 9.05766 8.11038 9.94543 8.11038Z" fill="#263238"/>
<path fill-rule="evenodd" clip-rule="evenodd" d="M12.5469 9.57099C12.5469 10.2717 13.1378 10.8405 13.8674 10.8405C14.5963 10.8405 15.1873 10.2717 15.1873 9.57099C15.1873 8.87026 14.5963 8.30151 13.8674 8.30151C13.1378 8.30151 12.5469 8.87026 12.5469 9.57099Z" fill="#263238"/>
</svg>