<svg width="36" height="36" viewBox="0 0 36 36" fill="none" xmlns="http://www.w3.org/2000/svg">
<path d="M18 28C23.5228 28 28 23.5228 28 18C28 12.4772 23.5228 8 18 8C12.4772 8 8 12.4772 8 18C8 23.5228 12.4772 28 18 28Z" stroke="inherit" stroke-width="2" stroke-linecap="round" stroke-linejoin="round"/>
<path d="M22.2021 14.9722L23 14.2088V14.0417H20.2358L18.2658 18.9451L16.0246 14.0417H13.1262V14.2088L14.0583 15.3309C14.1492 15.4138 14.1967 15.5351 14.1846 15.6572V20.0667C14.2133 20.2255 14.1617 20.3888 14.05 20.5042L13 21.7767V21.9417H15.9771V21.7747L14.9271 20.5042C14.8133 20.3884 14.7596 20.228 14.7825 20.0667V16.2526L17.3958 21.9438H17.6996L19.9467 16.2526V20.7863C19.9467 20.9059 19.9467 20.9305 19.8683 21.0088L19.06 21.7909V21.9584H22.9817V21.7913L22.2025 21.0284C22.1342 20.9767 22.0988 20.8901 22.1133 20.8059V15.1947C22.0988 15.1101 22.1337 15.0234 22.2021 14.9722Z" fill="#263238"/>
</svg>
