<svg width="36" height="36" viewBox="0 0 36 36" fill="none" xmlns="http://www.w3.org/2000/svg">
<path d="M27 17.5C27.0034 18.8199 26.6951 20.1219 26.1 21.3C25.3944 22.7117 24.3098 23.8992 22.9674 24.7293C21.6251 25.5594 20.0782 25.9994 18.5 26C17.1801 26.0034 15.8781 25.6951 14.7 25.1L9 27L10.9 21.3C10.3049 20.1219 9.99656 18.8199 10 17.5C10.0006 15.9218 10.4406 14.3749 11.2707 13.0326C12.1008 11.6903 13.2883 10.6056 14.7 9.9C15.8781 9.30493 17.1801 8.99656 18.5 9H19C21.0843 9.11499 23.053 9.99476 24.5291 11.4709C26.0052 12.947 26.885 14.9157 27 17V17.5Z" stroke="inherit" stroke-width="2" stroke-linecap="round" stroke-linejoin="round"/>
</svg>
