<svg width="36" height="36" viewBox="0 0 36 36" fill="none" xmlns="http://www.w3.org/2000/svg">
<path d="M14 9V12C14 12.5304 13.7893 13.0391 13.4142 13.4142C13.0391 13.7893 12.5304 14 12 14H9M27 14H24C23.4696 14 22.9609 13.7893 22.5858 13.4142C22.2107 13.0391 22 12.5304 22 12V9M22 27V24C22 23.4696 22.2107 22.9609 22.5858 22.5858C22.9609 22.2107 23.4696 22 24 22H27M9 22H12C12.5304 22 13.0391 22.2107 13.4142 22.5858C13.7893 22.9609 14 23.4696 14 24V27" stroke="inherit" stroke-width="2" stroke-linecap="round" stroke-linejoin="round"/>
</svg>
