<svg width="36" height="36" viewBox="0 0 36 36" fill="none" xmlns="http://www.w3.org/2000/svg">
<path d="M0 9C0 4.02944 4.02944 0 9 0H27C31.9706 0 36 4.02944 36 9V27C36 31.9706 31.9706 36 27 36H9C4.02944 36 0 31.9706 0 27V9Z" fill="#E6E6E6"/>
<path fill-rule="evenodd" clip-rule="evenodd" d="M18 30C11.349 30 6 24.651 6 18C6 11.349 11.349 6 18 6C24.651 6 30 11.349 30 18C30 24.651 24.651 30 18 30ZM18 25.251L18.9 24.351L18 20.901L17.1 24.351L18 25.251ZM16.851 25.2L16.401 26.901L17.451 25.851L16.851 25.2ZM19.149 25.2L18.549 25.8L19.599 26.85L19.149 25.2ZM20.001 28.299L18 26.301L15.999 28.302C16.65 28.401 17.298 28.503 18 28.503C18.699 28.5 19.35 28.449 20.001 28.299ZM18 7.5C12.201 7.5 7.5 12.201 7.5 18C7.5 22.599 10.449 26.499 14.55 27.9L16.8 19.551C16.299 19.2 15.999 18.6 15.999 17.952C15.999 16.851 16.899 15.951 18 15.951C19.101 15.951 20.001 16.851 20.001 17.952C20.001 18.603 19.701 19.152 19.2 19.551L21.45 27.9C25.551 26.499 28.5 22.599 28.5 18C28.5 12.201 23.799 7.5 18 7.5ZM24.849 23.199C24.6 23.499 24.15 23.598 23.799 23.349C23.448 23.1 23.4 22.65 23.649 22.35C23.649 22.35 24.999 20.55 24.999 18C24.999 15.45 23.649 13.65 23.649 13.65C23.4 13.35 23.448 12.9 23.799 12.651C24.15 12.402 24.6 12.501 24.849 12.801C24.948 12.9 26.499 14.952 26.499 18C26.499 21.048 24.951 23.1 24.849 23.199ZM21.201 21.249C20.901 20.949 20.952 20.4 21.252 20.1C21.252 20.1 22.002 19.299 22.002 18C22.002 16.701 21.252 15.951 21.252 15.9C20.952 15.6 20.952 15.099 21.201 14.751C21.501 14.4 21.951 14.4 22.251 14.7C22.302 14.751 23.502 15.999 23.502 18C23.502 20.001 22.302 21.249 22.251 21.3C21.951 21.6 21.501 21.549 21.201 21.249ZM14.799 21.249C14.499 21.549 14.049 21.6 13.749 21.3C13.698 21.201 12.498 20.001 12.498 18C12.498 15.999 13.698 14.799 13.749 14.7C14.049 14.4 14.55 14.4 14.799 14.751C15.099 15.051 15.048 15.6 14.748 15.9C14.748 15.951 13.998 16.701 13.998 18C13.998 19.299 14.748 20.1 14.748 20.1C15.051 20.4 15.099 20.901 14.799 21.249ZM12.201 23.349C11.85 23.598 11.4 23.499 11.151 23.199C11.052 23.1 9.501 21.048 9.501 18C9.501 14.952 11.052 12.9 11.151 12.801C11.4 12.501 11.85 12.402 12.201 12.651C12.552 12.9 12.6 13.35 12.351 13.65C12.351 13.65 11.001 15.45 11.001 18C11.001 20.55 12.351 22.35 12.351 22.35C12.6 22.65 12.501 23.1 12.201 23.349Z" fill="#263238"/>
</svg>
