<svg width="36" height="36" viewBox="0 0 36 36" fill="none" xmlns="http://www.w3.org/2000/svg">
<path d="M22.5 15.4L13.5 10.21" stroke="inherit" stroke-width="2" stroke-linecap="round" stroke-linejoin="round"/>
<path d="M27 21.9999V13.9999C26.9996 13.6492 26.9071 13.3047 26.7315 13.0011C26.556 12.6974 26.3037 12.4453 26 12.2699L19 8.2699C18.696 8.09437 18.3511 8.00195 18 8.00195C17.6489 8.00195 17.304 8.09437 17 8.2699L10 12.2699C9.69626 12.4453 9.44398 12.6974 9.26846 13.0011C9.09294 13.3047 9.00036 13.6492 9 13.9999V21.9999C9.00036 22.3506 9.09294 22.6951 9.26846 22.9987C9.44398 23.3024 9.69626 23.5545 10 23.7299L17 27.7299C17.304 27.9054 17.6489 27.9979 18 27.9979C18.3511 27.9979 18.696 27.9054 19 27.7299L26 23.7299C26.3037 23.5545 26.556 23.3024 26.7315 22.9987C26.9071 22.6951 26.9996 22.3506 27 21.9999Z" stroke="inherit" stroke-width="2" stroke-linecap="round" stroke-linejoin="round"/>
<path d="M9.27002 12.96L18 18.01L26.73 12.96" stroke="inherit" stroke-width="2" stroke-linecap="round" stroke-linejoin="round"/>
<path d="M18 28.08V18" stroke="inherit" stroke-width="2" stroke-linecap="round" stroke-linejoin="round"/>
</svg>
