<svg width="36" height="36" viewBox="0 0 36 36" fill="none" xmlns="http://www.w3.org/2000/svg">
<path d="M27.44 17.05L18.25 26.24C17.1241 27.3658 15.5972 27.9983 14.005 27.9983C12.4128 27.9983 10.8858 27.3658 9.75998 26.24C8.63414 25.1141 8.00165 23.5872 8.00165 21.995C8.00165 20.4028 8.63414 18.8758 9.75998 17.75L18.95 8.55998C19.7005 7.80942 20.7185 7.38776 21.78 7.38776C22.8414 7.38776 23.8594 7.80942 24.61 8.55998C25.3605 9.31054 25.7822 10.3285 25.7822 11.39C25.7822 12.4514 25.3605 13.4694 24.61 14.22L15.41 23.41C15.0347 23.7853 14.5257 23.9961 13.995 23.9961C13.4643 23.9961 12.9553 23.7853 12.58 23.41C12.2047 23.0347 11.9939 22.5257 11.9939 21.995C11.9939 21.4643 12.2047 20.9553 12.58 20.58L21.07 12.1" stroke="inherit" stroke-width="2" stroke-linecap="round" stroke-linejoin="round"/>
</svg>
