<svg width="36" height="36" viewBox="0 0 36 36" fill="none" xmlns="http://www.w3.org/2000/svg">
<path d="M11.19 18.81C9.50585 16.213 8.45435 13.2571 8.11999 10.18C8.095 9.90344 8.12787 9.62474 8.21649 9.3616C8.30512 9.09846 8.44756 8.85666 8.63476 8.6516C8.82196 8.44653 9.0498 8.28268 9.30379 8.1705C9.55777 8.05831 9.83233 8.00024 10.11 7.99997H13.11C13.5953 7.9952 14.0658 8.16705 14.4338 8.48351C14.8017 8.79996 15.0421 9.23942 15.11 9.71997C15.2366 10.68 15.4714 11.6227 15.81 12.53C15.9445 12.8879 15.9737 13.2769 15.8939 13.6509C15.8141 14.0248 15.6289 14.3681 15.36 14.64L14.09 15.91M16.68 19.31C17.6948 20.3257 18.8418 21.2002 20.09 21.91L21.36 20.64C21.6319 20.3711 21.9751 20.1858 22.3491 20.1061C22.7231 20.0263 23.1121 20.0554 23.47 20.19C24.3773 20.5285 25.3199 20.7634 26.28 20.89C26.7605 20.9579 27.2 21.1982 27.5165 21.5662C27.8329 21.9342 28.0048 22.4047 28 22.89V25.89C28.0011 26.1685 27.9441 26.4441 27.8325 26.6993C27.7209 26.9545 27.5573 27.1836 27.3521 27.3718C27.1468 27.5601 26.9046 27.7035 26.6407 27.7927C26.3769 27.8819 26.0974 27.915 25.82 27.89C22.7428 27.5556 19.787 26.5041 17.19 24.82C15.9853 24.055 14.8685 23.1596 13.86 22.15L16.68 19.31Z" stroke="inherit" stroke-width="2" stroke-linecap="round" stroke-linejoin="round"/>
<path d="M29 7L7 29" stroke="inherit" stroke-width="2" stroke-linecap="round" stroke-linejoin="round"/>
</svg>
