<svg width="36" height="36" viewBox="0 0 36 36" fill="none" xmlns="http://www.w3.org/2000/svg">
<path d="M29 13V7H23" stroke="inherit" stroke-width="2" stroke-linecap="round" stroke-linejoin="round"/>
<path d="M22 14L29 7" stroke="inherit" stroke-width="2" stroke-linecap="round" stroke-linejoin="round"/>
<path d="M28 22.92V25.92C28.0011 26.1985 27.9441 26.4741 27.8325 26.7293C27.7209 26.9845 27.5573 27.2136 27.3521 27.4018C27.1468 27.5901 26.9046 27.7335 26.6407 27.8227C26.3769 27.9119 26.0974 27.945 25.82 27.92C22.7428 27.5856 19.787 26.5341 17.19 24.85C14.7738 23.3146 12.7253 21.2661 11.19 18.85C9.49997 16.2412 8.44824 13.271 8.11999 10.18C8.095 9.90344 8.12787 9.62474 8.21649 9.3616C8.30512 9.09846 8.44756 8.85666 8.63476 8.6516C8.82196 8.44653 9.0498 8.28268 9.30379 8.1705C9.55777 8.05831 9.83233 8.00024 10.11 7.99997H13.11C13.5953 7.9952 14.0658 8.16705 14.4338 8.48351C14.8017 8.79996 15.0421 9.23942 15.11 9.71997C15.2366 10.68 15.4714 11.6227 15.81 12.53C15.9445 12.8879 15.9737 13.2769 15.8939 13.6509C15.8141 14.0248 15.6289 14.3681 15.36 14.64L14.09 15.91C15.5135 18.4135 17.5864 20.4864 20.09 21.91L21.36 20.64C21.6319 20.3711 21.9751 20.1858 22.3491 20.1061C22.7231 20.0263 23.1121 20.0554 23.47 20.19C24.3773 20.5285 25.3199 20.7634 26.28 20.89C26.7658 20.9585 27.2094 21.2032 27.5265 21.5775C27.8437 21.9518 28.0122 22.4296 28 22.92Z" stroke="inherit" stroke-width="2" stroke-linecap="round" stroke-linejoin="round"/>
</svg>
