<svg width="36" height="36" viewBox="0 0 36 36" fill="none" xmlns="http://www.w3.org/2000/svg">
<path d="M27.21 21.8901C26.5739 23.3946 25.5788 24.7203 24.3119 25.7514C23.045 26.7825 21.5448 27.4875 19.9425 27.8049C18.3401 28.1222 16.6845 28.0422 15.1202 27.5719C13.5559 27.1015 12.1307 26.2551 10.9691 25.1067C9.80745 23.9583 8.94485 22.5428 8.45667 20.984C7.96849 19.4252 7.8696 17.7706 8.16863 16.1647C8.46767 14.5589 9.15553 13.0507 10.1721 11.7721C11.1886 10.4935 12.5029 9.4834 14 8.83008" stroke="inherit" stroke-width="2" stroke-linecap="round" stroke-linejoin="round"/>
<path d="M28 18C28 16.6868 27.7413 15.3864 27.2388 14.1732C26.7362 12.9599 25.9997 11.8575 25.0711 10.9289C24.1425 10.0003 23.0401 9.26375 21.8268 8.7612C20.6136 8.25866 19.3132 8 18 8V18H28Z" stroke="inherit" stroke-width="2" stroke-linecap="round" stroke-linejoin="round"/>
</svg>
