<svg width="36" height="36" viewBox="0 0 36 36" fill="none" xmlns="http://www.w3.org/2000/svg">
<path d="M18 28C23.5228 28 28 23.5228 28 18C28 12.4772 23.5228 8 18 8C12.4772 8 8 12.4772 8 18C8 23.5228 12.4772 28 18 28Z" stroke="inherit" stroke-width="2" stroke-linecap="round" stroke-linejoin="round"/>
<path d="M15 15.0671C15.2425 14.3779 15.721 13.7967 16.3509 13.4265C16.9808 13.0563 17.7214 12.921 18.4415 13.0445C19.1616 13.1681 19.8147 13.5424 20.2852 14.1014C20.7558 14.6603 21.0133 15.3677 21.0122 16.0984C21.0122 18.1609 17.9184 19.1921 17.9184 19.1921" stroke="inherit" stroke-width="2" stroke-linecap="round" stroke-linejoin="round"/>
<path d="M18 23.3159H18.0105" stroke="inherit" stroke-width="2" stroke-linecap="round" stroke-linejoin="round"/>
</svg>
