<svg width="36" height="36" viewBox="0 0 36 36" fill="none" xmlns="http://www.w3.org/2000/svg">
<path d="M18 20C19.1046 20 20 19.1046 20 18C20 16.8954 19.1046 16 18 16C16.8954 16 16 16.8954 16 18C16 19.1046 16.8954 20 18 20Z" stroke="inherit" stroke-width="2" stroke-linecap="round" stroke-linejoin="round"/>
<path d="M22.24 13.7601C22.7979 14.3173 23.2404 14.979 23.5424 15.7074C23.8443 16.4358 23.9997 17.2166 23.9997 18.0051C23.9997 18.7935 23.8443 19.5743 23.5424 20.3027C23.2404 21.0311 22.7979 21.6928 22.24 22.2501M13.76 22.2401C13.2021 21.6828 12.7596 21.0211 12.4576 20.2927C12.1557 19.5643 12.0003 18.7835 12.0003 17.9951C12.0003 17.2066 12.1557 16.4258 12.4576 15.6974C12.7596 14.969 13.2021 14.3073 13.76 13.7501M25.07 10.9301C26.9447 12.8053 27.9979 15.3484 27.9979 18.0001C27.9979 20.6517 26.9447 23.1948 25.07 25.0701M10.93 25.0701C9.05529 23.1948 8.00214 20.6517 8.00214 18.0001C8.00214 15.3484 9.05529 12.8053 10.93 10.9301" stroke="inherit" stroke-width="2" stroke-linecap="round" stroke-linejoin="round"/>
</svg>
