<svg width="36" height="36" viewBox="0 0 36 36" fill="none" xmlns="http://www.w3.org/2000/svg">
<path d="M29 10V16H23" stroke="inherit" stroke-width="2" stroke-linecap="round" stroke-linejoin="round"/>
<path d="M7 26V20H13" stroke="inherit" stroke-width="2" stroke-linecap="round" stroke-linejoin="round"/>
<path d="M9.51 15C10.0172 13.5668 10.8791 12.2854 12.0155 11.2754C13.1518 10.2654 14.5255 9.55976 16.0083 9.22426C17.4911 8.88875 19.0348 8.93434 20.4952 9.35677C21.9556 9.77921 23.2853 10.5647 24.36 11.64L29 16M7 20L11.64 24.36C12.7147 25.4353 14.0444 26.2208 15.5048 26.6432C16.9652 27.0657 18.5089 27.1112 19.9917 26.7757C21.4745 26.4402 22.8482 25.7346 23.9845 24.7246C25.1209 23.7146 25.9828 22.4332 26.49 21" stroke="inherit" stroke-width="2" stroke-linecap="round" stroke-linejoin="round"/>
</svg>
