<svg width="36" height="36" viewBox="0 0 36 36" fill="none" xmlns="http://www.w3.org/2000/svg">
<path d="M26 8H10C8.89543 8 8 8.89543 8 10V14C8 15.1046 8.89543 16 10 16H26C27.1046 16 28 15.1046 28 14V10C28 8.89543 27.1046 8 26 8Z" stroke="inherit" stroke-width="2" stroke-linecap="round" stroke-linejoin="round"/>
<path d="M26 20H10C8.89543 20 8 20.8954 8 22V26C8 27.1046 8.89543 28 10 28H26C27.1046 28 28 27.1046 28 26V22C28 20.8954 27.1046 20 26 20Z" stroke="inherit" stroke-width="2" stroke-linecap="round" stroke-linejoin="round"/>
<path d="M12 12H12.01" stroke="inherit" stroke-width="2" stroke-linecap="round" stroke-linejoin="round"/>
<path d="M12 24H12.01" stroke="inherit" stroke-width="2" stroke-linecap="round" stroke-linejoin="round"/>
</svg>
