<svg width="36" height="36" viewBox="0 0 36 36" fill="none" xmlns="http://www.w3.org/2000/svg">
<path d="M15 28C15.5523 28 16 27.5523 16 27C16 26.4477 15.5523 26 15 26C14.4477 26 14 26.4477 14 27C14 27.5523 14.4477 28 15 28Z" stroke="inherit" stroke-width="2" stroke-linecap="round" stroke-linejoin="round"/>
<path d="M26 28C26.5523 28 27 27.5523 27 27C27 26.4477 26.5523 26 26 26C25.4477 26 25 26.4477 25 27C25 27.5523 25.4477 28 26 28Z" stroke="inherit" stroke-width="2" stroke-linecap="round" stroke-linejoin="round"/>
<path d="M7 7H11L13.68 20.39C13.7714 20.8504 14.0219 21.264 14.3875 21.5583C14.7532 21.8526 15.2107 22.009 15.68 22H25.4C25.8693 22.009 26.3268 21.8526 26.6925 21.5583C27.0581 21.264 27.3086 20.8504 27.4 20.39L29 12H12" stroke="inherit" stroke-width="2" stroke-linecap="round" stroke-linejoin="round"/>
</svg>
