<svg width="36" height="36" viewBox="0 0 36 36" fill="none" xmlns="http://www.w3.org/2000/svg">
<path d="M24 8H12C10.8954 8 10 8.89543 10 10V26C10 27.1046 10.8954 28 12 28H24C25.1046 28 26 27.1046 26 26V10C26 8.89543 25.1046 8 24 8Z" stroke="inherit" stroke-width="2" stroke-linecap="round" stroke-linejoin="round"/>
<path d="M18 24C20.2091 24 22 22.2091 22 20C22 17.7909 20.2091 16 18 16C15.7909 16 14 17.7909 14 20C14 22.2091 15.7909 24 18 24Z" stroke="inherit" stroke-width="2" stroke-linecap="round" stroke-linejoin="round"/>
<path d="M18 12H18.01" stroke="inherit" stroke-width="2" stroke-linecap="round" stroke-linejoin="round"/>
</svg>
