<svg width="36" height="36" viewBox="0 0 36 36" fill="none" xmlns="http://www.w3.org/2000/svg">
<path d="M0 9C0 4.02944 4.02944 0 9 0H27C31.9706 0 36 4.02944 36 9V27C36 31.9706 31.9706 36 27 36H9C4.02944 36 0 31.9706 0 27V9Z" fill="#E6E6E6"/>
<path d="M18 6C11.3763 6 6 11.3763 6 18C6 24.638 11.3763 30 18 30C24.638 30 30 24.6237 30 18C30.0143 11.3763 24.638 6 18 6ZM23.5054 23.319C23.2903 23.6774 22.8315 23.7778 22.4731 23.5627C19.6487 21.8423 16.1075 21.4552 11.9211 22.4014C11.5197 22.4875 11.1183 22.2437 11.0323 21.8423C10.9462 21.4409 11.19 21.0394 11.5914 20.9534C16.1649 19.9068 20.0932 20.3513 23.2473 22.2867C23.6201 22.5018 23.7348 22.9606 23.5054 23.319ZM24.9821 20.0502C24.7097 20.4946 24.1362 20.6237 23.6918 20.3656C20.466 18.3728 15.5484 17.7993 11.7348 18.9606C11.233 19.1039 10.7168 18.8315 10.5735 18.3441C10.4301 17.8423 10.7025 17.3262 11.2043 17.1828C15.5627 15.8638 20.9821 16.4946 24.6953 18.7742C25.1111 19.0323 25.2545 19.6057 24.9821 20.0502ZM25.1111 16.638C21.2401 14.3441 14.8602 14.129 11.1613 15.2473C10.5735 15.4337 9.94265 15.0896 9.75627 14.5018C9.56989 13.914 9.91398 13.2832 10.5018 13.0968C14.7455 11.8065 21.7993 12.0645 26.2437 14.7025C26.7742 15.0179 26.9462 15.7061 26.6308 16.2366C26.3298 16.7814 25.6416 16.9534 25.1111 16.638Z" fill="#263238"/>
</svg>
