<svg width="36" height="36" viewBox="0 0 36 36" fill="none" xmlns="http://www.w3.org/2000/svg">
<path d="M11.5 22C13.433 22 15 20.433 15 18.5C15 16.567 13.433 15 11.5 15C9.567 15 8 16.567 8 18.5C8 20.433 9.567 22 11.5 22Z" stroke="inherit" stroke-width="2" stroke-linecap="round" stroke-linejoin="round"/>
<path d="M24.5 22C26.433 22 28 20.433 28 18.5C28 16.567 26.433 15 24.5 15C22.567 15 21 16.567 21 18.5C21 20.433 22.567 22 24.5 22Z" stroke="inherit" stroke-width="2" stroke-linecap="round" stroke-linejoin="round"/>
<path d="M21 19C21 17.3431 19.6569 16 18 16C16.3431 16 15 17.3431 15 19" stroke="inherit" stroke-width="1.93" stroke-linecap="round" stroke-linejoin="round"/>
</svg>
