<svg width="36" height="36" viewBox="0 0 36 36" fill="none" xmlns="http://www.w3.org/2000/svg">
<path d="M13 28H10C9.46957 28 8.96086 27.7893 8.58579 27.4142C8.21071 27.0391 8 26.5304 8 26V19C8 18.4696 8.21071 17.9609 8.58579 17.5858C8.96086 17.2107 9.46957 17 10 17H13M20 15V11C20 10.2044 19.6839 9.44129 19.1213 8.87868C18.5587 8.31607 17.7956 8 17 8L13 17V28H24.28C24.7623 28.0055 25.2304 27.8364 25.5979 27.524C25.9654 27.2116 26.2077 26.7769 26.28 26.3L27.66 17.3C27.7035 17.0134 27.6842 16.7207 27.6033 16.4423C27.5225 16.1638 27.3821 15.9063 27.1919 15.6875C27.0016 15.4687 26.7661 15.2939 26.5016 15.1752C26.2371 15.0565 25.9499 14.9967 25.66 15H20Z" stroke="inherit" stroke-width="2" stroke-linecap="round" stroke-linejoin="round"/>
</svg>
