<svg width="36" height="36" viewBox="0 0 36 36" fill="none" xmlns="http://www.w3.org/2000/svg">
<path d="M23 8H25.67C26.236 7.98999 26.7859 8.18813 27.2154 8.55682C27.645 8.9255 27.9242 9.43906 28 10V17C27.9242 17.5609 27.645 18.0745 27.2154 18.4432C26.7859 18.8119 26.236 19.01 25.67 19H23M16 21V25C16 25.7956 16.3161 26.5587 16.8787 27.1213C17.4413 27.6839 18.2044 28 19 28L23 19V8H11.72C11.2377 7.99455 10.7697 8.16359 10.4021 8.47599C10.0346 8.78839 9.79235 9.22309 9.72003 9.7L8.34003 18.7C8.29652 18.9866 8.31586 19.2793 8.39669 19.5577C8.47753 19.8362 8.61793 20.0937 8.80817 20.3125C8.99842 20.5313 9.23395 20.7061 9.49846 20.8248C9.76297 20.9435 10.0501 21.0033 10.34 21H16Z" stroke="inherit" stroke-width="2" stroke-linecap="round" stroke-linejoin="round"/>
</svg>
