<svg width="36" height="36" viewBox="0 0 36 36" fill="none" xmlns="http://www.w3.org/2000/svg">
<path d="M27.2357 20.6059C26.6834 20.6059 26.2357 21.0536 26.2357 21.6059C26.2357 22.1582 26.6834 22.6059 27.2357 22.6059V20.6059ZM28.9991 19.8516L29.9985 19.8183L29.9985 19.8166L28.9991 19.8516ZM27.1954 17.221C26.6432 17.221 26.1954 17.6687 26.1954 18.221C26.1954 18.7733 26.6432 19.221 27.1954 19.221V17.221ZM19.7394 14.898L18.8794 14.3877C18.696 14.6968 18.6926 15.0805 18.8704 15.3928C19.0483 15.7051 19.38 15.898 19.7394 15.898V14.898ZM20.8908 8.46832L19.8974 8.58332L19.8983 8.59057L20.8908 8.46832ZM17.4688 8.4374L18.4587 8.57886L18.4595 8.57373L17.4688 8.4374ZM14.5379 13.9088L15.2304 14.6303L15.2937 14.5695L15.3455 14.4986L14.5379 13.9088ZM14.4976 13.9629L13.8052 13.2414L13.7445 13.2997L13.6944 13.3672L14.4976 13.9629ZM27.9684 25.8717L26.9695 25.8244L26.9691 25.8341L27.9684 25.8717ZM26.7365 23.6275C26.1842 23.6275 25.7365 24.0752 25.7365 24.6275C25.7365 25.1798 26.1842 25.6275 26.7365 25.6275V23.6275ZM27.2357 22.6059C28.7493 22.6059 30.0509 21.3906 29.9985 19.8183L27.9996 19.8849C28.0116 20.2446 27.7029 20.6059 27.2357 20.6059V22.6059ZM29.9985 19.8166C29.945 18.2898 28.6206 17.221 27.1954 17.221V19.221C27.6867 19.221 27.9887 19.5742 27.9997 19.8866L29.9985 19.8166ZM29.4999 16.5131C29.4999 14.9285 28.1605 13.898 26.7365 13.898V15.898C27.2611 15.898 27.4999 16.2276 27.4999 16.5131H29.4999ZM20.5994 15.4083C22.116 12.8524 22.0882 10.0092 21.8833 8.34606L19.8983 8.59057C20.08 10.065 20.0683 12.384 18.8794 14.3877L20.5994 15.4083ZM21.8842 8.35332C21.7252 6.97946 20.5254 6 19.1758 6V8C19.5815 8 19.8633 8.28793 19.8975 8.58332L21.8842 8.35332ZM19.1758 6C17.8447 6 16.663 6.95772 16.4781 8.30108L18.4595 8.57373C18.5 8.27875 18.7837 8 19.1758 8V6ZM16.4788 8.29595C16.1381 10.6803 15.0513 11.5103 13.7303 13.319L15.3455 14.4986C16.4401 12.9997 18.0264 11.6041 18.4587 8.57886L16.4788 8.29595ZM13.8455 13.1873C13.7824 13.2479 13.7387 13.3048 13.7128 13.3411C13.6996 13.3596 13.6892 13.3754 13.6825 13.3859C13.6762 13.3956 13.6707 13.4044 13.6698 13.4058C13.6677 13.4093 13.6701 13.4053 13.6733 13.4003C13.677 13.3946 13.6843 13.3836 13.6942 13.3696C13.7135 13.3425 13.7502 13.2943 13.8052 13.2414L15.1901 14.6844C15.2532 14.6238 15.2969 14.5669 15.3227 14.5306C15.3359 14.5121 15.3464 14.4963 15.3531 14.4858C15.3594 14.4761 15.3649 14.4673 15.3657 14.466C15.3679 14.4625 15.3654 14.4664 15.3622 14.4714C15.3586 14.4771 15.3513 14.4882 15.3414 14.5021C15.322 14.5292 15.2854 14.5774 15.2304 14.6303L13.8455 13.1873ZM13.6944 13.3672C12.5938 14.8513 12 16.6362 12 18.4683H14C14 17.0702 14.4529 15.702 15.3009 14.5586L13.6944 13.3672ZM12 18.4683V23.9938H14V18.4683H12ZM12 23.9938C12 26.2459 13.8878 28 16.1322 28V26C14.9142 26 14 25.0647 14 23.9938H12ZM16.1322 28H26.7043V26H16.1322V28ZM26.7043 28C27.8249 28 28.9203 27.1694 28.9677 25.9093L26.9691 25.8341C26.9683 25.8561 26.9602 25.888 26.9174 25.9256C26.8714 25.966 26.7966 26 26.7043 26V28ZM28.9673 25.919C29.0283 24.6303 27.9686 23.6275 26.7365 23.6275V25.6275C26.9054 25.6275 26.9729 25.753 26.9695 25.8244L28.9673 25.919ZM26.7365 25.6275C28.1193 25.6275 29.3066 24.5458 29.3066 23.1206H27.3066C27.3066 23.3646 27.0929 23.6275 26.7365 23.6275V25.6275ZM26.7365 13.898H19.7394V15.898H26.7365V13.898ZM27.1954 19.221C27.9825 19.221 28.6369 18.8935 29.0448 18.2808C29.4074 17.7363 29.4999 17.0781 29.4999 16.5131H27.4999C27.4999 16.9069 27.4265 17.1026 27.3801 17.1724C27.3651 17.1949 27.3588 17.1964 27.3571 17.1973C27.3522 17.1997 27.3091 17.221 27.1954 17.221V19.221ZM29.3066 23.1206C29.3066 22.8924 29.3204 22.301 29.0917 21.7682C28.9658 21.475 28.7545 21.1649 28.4088 20.9348C28.0628 20.7045 27.6592 20.6059 27.2357 20.6059V22.6059C27.3476 22.6059 27.3457 22.6297 27.3008 22.5998C27.2563 22.5702 27.2459 22.5386 27.2538 22.5571C27.2657 22.5847 27.2837 22.6467 27.2949 22.7579C27.3059 22.8683 27.3066 22.9822 27.3066 23.1206H29.3066Z" fill="#263238"/>
<path d="M10.8676 27H8.13238C7.50239 27 7 26.5093 7 25.9112V16.0888C7 15.4831 7.51037 15 8.13238 15H10.8676C11.4976 15 12 15.4907 12 16.0888V25.9112C12 26.5169 11.4896 27 10.8676 27Z" stroke="inherit" stroke-width="2"/>
</svg>
