<svg width="36" height="36" viewBox="0 0 36 36" fill="none" xmlns="http://www.w3.org/2000/svg">
<path d="M20.7 12.3C20.5168 12.4869 20.4141 12.7382 20.4141 13C20.4141 13.2617 20.5168 13.5131 20.7 13.7L22.3 15.3C22.4869 15.4832 22.7382 15.5858 23 15.5858C23.2617 15.5858 23.513 15.4832 23.7 15.3L27.47 11.53C27.9728 12.6412 28.1251 13.8792 27.9064 15.0791C27.6878 16.279 27.1087 17.3838 26.2463 18.2463C25.3838 19.1087 24.279 19.6878 23.0791 19.9064C21.8792 20.1251 20.6412 19.9728 19.53 19.47L12.62 26.38C12.2222 26.7778 11.6826 27.0013 11.12 27.0013C10.5574 27.0013 10.0178 26.7778 9.61998 26.38C9.22215 25.9822 8.99866 25.4426 8.99866 24.88C8.99866 24.3174 9.22215 23.7778 9.61998 23.38L16.53 16.47C16.0271 15.3588 15.8749 14.1207 16.0935 12.9208C16.3121 11.7209 16.8913 10.6161 17.7537 9.7537C18.6161 8.89127 19.7209 8.31215 20.9208 8.09352C22.1207 7.8749 23.3588 8.02714 24.47 8.52998L20.71 12.29L20.7 12.3Z" stroke="inherit" stroke-width="2" stroke-linecap="round" stroke-linejoin="round"/>
</svg>
