<svg width="36" height="36" viewBox="0 0 36 36" fill="none" xmlns="http://www.w3.org/2000/svg">
<path d="M22 9H7V22H22V9Z" stroke="inherit" stroke-width="2" stroke-linecap="round" stroke-linejoin="round"/>
<path d="M22 14H26L29 17V22H22V14Z" stroke="inherit" stroke-width="2" stroke-linecap="round" stroke-linejoin="round"/>
<path d="M11.5 27C12.8807 27 14 25.8807 14 24.5C14 23.1193 12.8807 22 11.5 22C10.1193 22 9 23.1193 9 24.5C9 25.8807 10.1193 27 11.5 27Z" stroke="inherit" stroke-width="2" stroke-linecap="round" stroke-linejoin="round"/>
<path d="M24.5 27C25.8807 27 27 25.8807 27 24.5C27 23.1193 25.8807 22 24.5 22C23.1193 22 22 23.1193 22 24.5C22 25.8807 23.1193 27 24.5 27Z" stroke="inherit" stroke-width="2" stroke-linecap="round" stroke-linejoin="round"/>
</svg>
