<svg width="36" height="36" viewBox="0 0 36 36" fill="none" xmlns="http://www.w3.org/2000/svg">
<path d="M18 28C23.5228 28 28 23.5228 28 18C28 12.4772 23.5228 8 18 8C12.4772 8 8 12.4772 8 18C8 23.5228 12.4772 28 18 28Z" stroke="inherit" stroke-width="2" stroke-linecap="round" stroke-linejoin="round"/>
<path fill-rule="evenodd" clip-rule="evenodd" d="M15.5746 22.7629C15.5926 22.7629 15.6121 22.7636 15.6301 22.7651C19.901 22.7378 22.4501 19.5198 22.4501 16.4091C22.4501 16.1266 22.5971 15.9439 22.7276 15.7819C22.846 15.634 23.0298 15.4062 23.1933 15.0778C22.5986 15.0719 22.0676 14.8116 21.7586 14.4551C21.4354 14.1141 20.9712 13.9056 20.4702 13.8908C19.9873 13.8715 19.4945 14.055 19.1286 14.3974C18.6411 14.8537 18.4326 15.5423 18.5841 16.1931L18.7798 17.0355L17.9054 17.0962C15.6436 17.2633 14.0762 16.3085 13 15.3204C13.0045 16.8144 13.5077 18.8076 15.7951 20.093L16.5135 20.4968L16.0358 21.1632C15.5386 21.8576 14.7901 22.3007 14.0282 22.5839C14.5314 22.7023 15.0489 22.7629 15.5648 22.7629H15.5746Z" fill="#263238"/>
</svg>
