<svg width="36" height="36" viewBox="0 0 36 36" fill="none" xmlns="http://www.w3.org/2000/svg">
<g clip-path="url(#clip0_119:4991)">
<path d="M22 22L18 18L14 22" stroke="inherit" stroke-width="2" stroke-linecap="round" stroke-linejoin="round"/>
<path d="M18 18V27" stroke="inherit" stroke-width="2" stroke-linecap="round" stroke-linejoin="round"/>
<path d="M26.39 24.39C27.3654 23.8583 28.1359 23.0169 28.5799 21.9986C29.0239 20.9804 29.1162 19.8432 28.8422 18.7667C28.5682 17.6902 27.9435 16.7355 27.0667 16.0535C26.1899 15.3714 25.1109 15.0007 24 15H22.74C22.4373 13.8293 21.8732 12.7423 21.09 11.821C20.3068 10.8997 19.3249 10.1679 18.2181 9.68062C17.1114 9.19338 15.9086 8.96337 14.7001 9.0079C13.4917 9.05242 12.3091 9.37031 11.2412 9.93768C10.1733 10.505 9.24793 11.3071 8.53464 12.2836C7.82135 13.2601 7.33871 14.3856 7.123 15.5754C6.90729 16.7653 6.96413 17.9885 7.28923 19.1533C7.61434 20.318 8.19926 21.3939 9.00002 22.3" stroke="inherit" stroke-width="2" stroke-linecap="round" stroke-linejoin="round"/>
<path d="M22 22L18 18L14 22" stroke="inherit" stroke-width="2" stroke-linecap="round" stroke-linejoin="round"/>
</g>
<defs>
<clipPath id="clip0_119:4991">
<rect width="24" height="24" fill="white" transform="translate(6 6)"/>
</clipPath>
</defs>
</svg>
