<svg width="96" height="96" viewBox="0 0 96 96" fill="none" xmlns="http://www.w3.org/2000/svg">
<rect x="16.5" y="16.5" width="63" height="63" rx="3.5" fill="#F2F2F2"/>
<g clip-path="url(#clip0_119:4997)">
<path d="M53.1924 36.8076V39.1153C53.1924 39.4213 53.0708 39.7148 52.8544 39.9312C52.638 40.1476 52.3445 40.2692 52.0385 40.2692H43.9616C43.6556 40.2692 43.3621 40.1476 43.1457 39.9312C42.9293 39.7148 42.8077 39.4213 42.8077 39.1153V36.8076" stroke="inherit" stroke-width="1.38462" stroke-linecap="round" stroke-linejoin="round"/>
<path d="M50.8846 32.7691L48 29.8845L45.1154 32.7691" stroke="inherit" stroke-width="1.38462" stroke-linecap="round" stroke-linejoin="round"/>
<path d="M48 29.8845V36.8075" stroke="inherit" stroke-width="1.38462" stroke-linecap="round" stroke-linejoin="round"/>
<path d="M35.0785 62.3076V55.3873H36.1253V61.4063H39.0814V62.3076H35.0785ZM46.2956 58.8378C46.2956 59.555 46.176 60.1818 45.9369 60.7181C45.6979 61.248 45.3393 61.6615 44.8611 61.9587C44.3829 62.256 43.7885 62.4046 43.0777 62.4046C42.3476 62.4046 41.7434 62.256 41.2653 61.9587C40.7871 61.6615 40.4317 61.2447 40.1991 60.7084C39.9665 60.1721 39.8502 59.5453 39.8502 58.8281C39.8502 58.1173 39.9665 57.497 40.1991 56.9672C40.4382 56.4373 40.7968 56.0238 41.2749 55.7266C41.7531 55.4293 42.3573 55.2807 43.0874 55.2807C43.7982 55.2807 44.3894 55.4293 44.8611 55.7266C45.3393 56.0173 45.6979 56.4309 45.9369 56.9672C46.176 57.497 46.2956 58.1206 46.2956 58.8378ZM40.9551 58.8378C40.9551 59.6649 41.1263 60.3175 41.4688 60.7956C41.8113 61.2738 42.3476 61.5129 43.0777 61.5129C43.8143 61.5129 44.3506 61.2738 44.6866 60.7956C45.0226 60.3175 45.1906 59.6649 45.1906 58.8378C45.1906 58.0107 45.0226 57.3613 44.6866 56.8896C44.3571 56.418 43.824 56.1821 43.0874 56.1821C42.3508 56.1821 41.8113 56.418 41.4688 56.8896C41.1263 57.3613 40.9551 58.0107 40.9551 58.8378ZM50.7915 58.5858H53.2922V62.0363C52.9238 62.159 52.5458 62.2495 52.1582 62.3076C51.7769 62.3723 51.3408 62.4046 50.8497 62.4046C49.79 62.4046 48.9758 62.0912 48.4072 61.4644C47.8451 60.8312 47.564 59.9589 47.564 58.8475C47.564 58.1238 47.7029 57.497 47.9808 56.9672C48.2651 56.4309 48.6754 56.0173 49.2117 55.7266C49.748 55.4358 50.3974 55.2904 51.1598 55.2904C51.5411 55.2904 51.9062 55.3292 52.2551 55.4067C52.604 55.4778 52.9271 55.578 53.2243 55.7072L52.8463 56.5795C52.6072 56.4761 52.3391 56.3856 52.0418 56.3081C51.7511 56.2306 51.4442 56.1918 51.1211 56.1918C50.3522 56.1918 49.748 56.4309 49.3086 56.909C48.8692 57.3872 48.6495 58.0366 48.6495 58.8572C48.6495 59.3806 48.7303 59.8426 48.8918 60.2432C49.0534 60.6373 49.3086 60.9475 49.6575 61.1736C50.0065 61.3998 50.462 61.5129 51.0242 61.5129C51.302 61.5129 51.5346 61.5 51.722 61.4741C51.9158 61.4418 52.0935 61.4063 52.2551 61.3675V59.4872H50.7915V58.5858ZM61.1553 58.8378C61.1553 59.555 61.0358 60.1818 60.7967 60.7181C60.5576 61.248 60.199 61.6615 59.7208 61.9587C59.2427 62.256 58.6482 62.4046 57.9374 62.4046C57.2073 62.4046 56.6031 62.256 56.125 61.9587C55.6468 61.6615 55.2914 61.2447 55.0588 60.7084C54.8262 60.1721 54.7099 59.5453 54.7099 58.8281C54.7099 58.1173 54.8262 57.497 55.0588 56.9672C55.2979 56.4373 55.6565 56.0238 56.1347 55.7266C56.6128 55.4293 57.217 55.2807 57.9471 55.2807C58.6579 55.2807 59.2491 55.4293 59.7208 55.7266C60.199 56.0173 60.5576 56.4309 60.7967 56.9672C61.0358 57.497 61.1553 58.1206 61.1553 58.8378ZM55.8148 58.8378C55.8148 59.6649 55.9861 60.3175 56.3285 60.7956C56.671 61.2738 57.2073 61.5129 57.9374 61.5129C58.6741 61.5129 59.2104 61.2738 59.5464 60.7956C59.8824 60.3175 60.0504 59.6649 60.0504 58.8378C60.0504 58.0107 59.8824 57.3613 59.5464 56.8896C59.2168 56.418 58.6838 56.1821 57.9471 56.1821C57.2105 56.1821 56.671 56.418 56.3285 56.8896C55.9861 57.3613 55.8148 58.0107 55.8148 58.8378Z" fill="#263238"/>
</g>
<rect x="16.5" y="16.5" width="63" height="63" rx="3.5" stroke="#E6E6E6"/>
<defs>
<clipPath id="clip0_119:4997">
<rect width="36" height="47.0769" fill="white" transform="translate(30 24)"/>
</clipPath>
</defs>
</svg>
