<svg width="36" height="36" viewBox="0 0 36 36" fill="none" xmlns="http://www.w3.org/2000/svg">
<path d="M25 26.1666V26.2222C25 25.1908 24.6312 24.2017 23.9749 23.4723C23.3185 22.743 22.4283 22.3333 21.5 22.3333H14.5C13.5717 22.3333 12.6815 22.743 12.0251 23.4723C11.3687 24.2017 11 25.1908 11 26.2222V26.1666" stroke="inherit" stroke-width="2.33333" stroke-linecap="round" stroke-linejoin="round"/>
<path d="M18 18.8333C19.933 18.8333 21.5 17.2663 21.5 15.3333C21.5 13.4003 19.933 11.8333 18 11.8333C16.067 11.8333 14.5 13.4003 14.5 15.3333C14.5 17.2663 16.067 18.8333 18 18.8333Z" stroke="inherit" stroke-width="2.33333" stroke-linecap="round" stroke-linejoin="round"/>
<rect x="7" y="7" width="22" height="22" rx="11" stroke="inherit" stroke-width="2"/>
</svg>
