<svg xmlns="http://www.w3.org/2000/svg" width="24" height="24" viewBox="0 0 24 24" fill="none">
<path d="M15.6364 22.5455V19.091C15.6364 18.3194 15.3299 17.5795 14.7843 17.0339C14.2388 16.4884 13.4988 16.1819 12.7273 16.1819H6.90909C6.13755 16.1819 5.39761 16.4884 4.85205 17.0339C4.30649 17.5795 4 18.3194 4 19.091V20.5455" stroke="#263238" stroke-width="2" stroke-linecap="round" stroke-linejoin="round"/>
<path d="M9.81729 13.2728C11.4239 13.2728 12.7264 11.9703 12.7264 10.3637C12.7264 8.75703 11.4239 7.45459 9.81729 7.45459C8.21065 7.45459 6.9082 8.75703 6.9082 10.3637C6.9082 11.9703 8.21065 13.2728 9.81729 13.2728Z" stroke="#263238" stroke-width="2" stroke-linecap="round" stroke-linejoin="round"/>
<path d="M20.0002 20.5455V19.0909C19.9997 18.4464 19.7852 17.8202 19.3903 17.3108C18.9954 16.8014 18.4425 16.4375 17.8184 16.2764" stroke="#263238" stroke-width="2" stroke-linecap="round" stroke-linejoin="round"/>
<path d="M14.9082 7.54907C15.534 7.70929 16.0886 8.07322 16.4847 8.58348C16.8807 9.09374 17.0957 9.72131 17.0957 10.3673C17.0957 11.0132 16.8807 11.6408 16.4847 12.151C16.0886 12.6613 15.534 13.0252 14.9082 13.1854" stroke="#263238" stroke-width="2" stroke-linecap="round" stroke-linejoin="round"/>
<rect x="1" y="1" width="22" height="22" rx="11" stroke="#263238" stroke-width="2"/>
</svg>