<svg width="36" height="36" viewBox="0 0 36 36" fill="none" xmlns="http://www.w3.org/2000/svg">
<path d="M21.111 27.9999V24.4444C21.111 23.6192 20.7832 22.8279 20.1998 22.2445C19.6163 21.661 18.825 21.3333 17.9999 21.3333H12.5554C11.7303 21.3333 10.939 21.661 10.3556 22.2445C9.77211 22.8279 9.44434 23.6192 9.44434 24.4444V25.9999" stroke="inherit" stroke-width="2" stroke-linecap="round" stroke-linejoin="round"/>
<path d="M15.2777 18.2222C16.996 18.2222 18.3888 16.8293 18.3888 15.1111C18.3888 13.3929 16.996 12 15.2777 12C13.5595 12 12.1666 13.3929 12.1666 15.1111C12.1666 16.8293 13.5595 18.2222 15.2777 18.2222Z" stroke="inherit" stroke-width="2" stroke-linecap="round" stroke-linejoin="round"/>
<path d="M24.8722 16.5721L21.5724 19.872" stroke="inherit" stroke-width="2" stroke-linecap="round" stroke-linejoin="round"/>
<path d="M24.872 19.872L21.5722 16.5722" stroke="inherit" stroke-width="2" stroke-linecap="round" stroke-linejoin="round"/>
<rect x="7" y="7" width="22" height="22" rx="11" stroke="inherit" stroke-width="2"/>
</svg>
