<svg width="36" height="36" viewBox="0 0 36 36" fill="none" xmlns="http://www.w3.org/2000/svg">
<path d="M21.6364 28.5455V25.091C21.6364 24.3194 21.3299 23.5795 20.7843 23.0339C20.2388 22.4884 19.4988 22.1819 18.7273 22.1819H12.9091C12.1376 22.1819 11.3976 22.4884 10.8521 23.0339C10.3065 23.5795 10 24.3194 10 25.091V26.5455" stroke="inherit" stroke-width="2" stroke-linecap="round" stroke-linejoin="round"/>
<path d="M15.8181 19.2728C17.4248 19.2728 18.7272 17.9703 18.7272 16.3637C18.7272 14.757 17.4248 13.4546 15.8181 13.4546C14.2115 13.4546 12.9091 14.757 12.9091 16.3637C12.9091 17.9703 14.2115 19.2728 15.8181 19.2728Z" stroke="inherit" stroke-width="2" stroke-linecap="round" stroke-linejoin="round"/>
<path d="M26.0001 26.5455V25.0909C25.9996 24.4464 25.785 23.8202 25.3901 23.3108C24.9952 22.8014 24.4423 22.4375 23.8182 22.2764" stroke="inherit" stroke-width="2" stroke-linecap="round" stroke-linejoin="round"/>
<path d="M20.9091 13.5491C21.5348 13.7093 22.0894 14.0732 22.4855 14.5835C22.8816 15.0937 23.0966 15.7213 23.0966 16.3673C23.0966 17.0132 22.8816 17.6408 22.4855 18.151C22.0894 18.6613 21.5348 19.0252 20.9091 19.1854" stroke="inherit" stroke-width="2" stroke-linecap="round" stroke-linejoin="round"/>
<rect x="7" y="7" width="22" height="22" rx="11" stroke="inherit" stroke-width="2"/>
</svg>
