<svg width="36" height="36" viewBox="0 0 36 36" fill="none" xmlns="http://www.w3.org/2000/svg">
<path fill-rule="evenodd" clip-rule="evenodd" d="M18.0206 8.73306C13.0594 8.73306 9.04127 12.7512 9.04127 17.7124C9.04127 19.4037 9.51279 20.9925 10.3328 22.3456L8.71326 27.153L13.6847 25.5642C14.966 26.2715 16.4523 26.6815 18.0206 26.6815C22.9818 26.6815 27 22.6634 27 17.7022C26.9897 12.7512 22.9818 8.73306 18.0206 8.73306ZM18.0206 25.1747C16.5036 25.1747 15.089 24.7237 13.9102 23.9344L11.0401 24.8569L11.9729 22.0791C11.0811 20.849 10.5481 19.332 10.5481 17.7022C10.5481 13.5815 13.9 10.2296 18.0206 10.2296C22.1413 10.2296 25.4932 13.5815 25.4932 17.7022C25.4932 21.8228 22.1413 25.1747 18.0206 25.1747ZM22.2233 19.742C21.9978 19.619 20.8907 19.0245 20.6857 18.9425C20.4807 18.8605 20.327 18.8195 20.163 19.0347C19.9989 19.2602 19.5479 19.7522 19.4044 19.906C19.2609 20.0495 19.1277 20.07 18.9022 19.947C18.6766 19.824 17.9489 19.5575 17.0981 18.7374C16.4523 18.1122 16.0218 17.3434 15.8988 17.1076C15.7758 16.8719 15.8988 16.7489 16.0218 16.6464C16.1243 16.5439 16.2576 16.3901 16.3806 16.2569C16.5036 16.1236 16.5446 16.0313 16.6266 15.8878C16.7086 15.7341 16.6778 15.6008 16.6266 15.4881C16.5753 15.3753 16.155 14.2273 15.9808 13.766C15.8065 13.3047 15.6118 13.3662 15.4785 13.3662C15.3453 13.3662 15.1915 13.3355 15.0378 13.3355C14.884 13.3252 14.638 13.3765 14.4125 13.602C14.1972 13.8275 13.5822 14.3503 13.5412 15.4778C13.5002 16.6054 14.2792 17.7227 14.392 17.8867C14.5047 18.0404 15.8783 20.4903 18.1744 21.4948C20.4705 22.4993 20.4807 22.1918 20.901 22.1713C21.3212 22.1508 22.2745 21.6691 22.4898 21.136C22.7051 20.6133 22.7153 20.152 22.6641 20.0495C22.6025 19.9367 22.4488 19.865 22.2233 19.742Z" fill="#231F20"/>
</svg>
