<svg width="36" height="36" viewBox="0 0 36 36" fill="none" xmlns="http://www.w3.org/2000/svg">
<path d="M7 7L29 29" stroke="inherit" stroke-width="2" stroke-linecap="round" stroke-linejoin="round"/>
<path d="M22.72 17.0601C23.5391 17.4598 24.305 17.9604 25 18.5501" stroke="inherit" stroke-width="2" stroke-linecap="round" stroke-linejoin="round"/>
<path d="M11 18.5499C12.4821 17.3107 14.2659 16.4861 16.17 16.1599" stroke="inherit" stroke-width="2" stroke-linecap="round" stroke-linejoin="round"/>
<path d="M16.71 11.05C18.8524 10.8774 21.0076 11.1381 23.047 11.8168C25.0864 12.4955 26.9682 13.5781 28.58 15" stroke="inherit" stroke-width="2" stroke-linecap="round" stroke-linejoin="round"/>
<path d="M7.42004 15.0001C8.80721 13.774 10.3977 12.7993 12.12 12.1201" stroke="inherit" stroke-width="2" stroke-linecap="round" stroke-linejoin="round"/>
<path d="M14.53 22.11C15.5452 21.3887 16.7597 21.0012 18.005 21.0012C19.2504 21.0012 20.4648 21.3887 21.48 22.11" stroke="inherit" stroke-width="2" stroke-linecap="round" stroke-linejoin="round"/>
<path d="M18 26H18.01" stroke="inherit" stroke-width="2" stroke-linecap="round" stroke-linejoin="round"/>
</svg>
