<svg width="36" height="36" viewBox="0 0 36 36" fill="none" xmlns="http://www.w3.org/2000/svg">
<g clip-path="url(#clip0_119:5225)">
<path d="M16.9932 7.8845C21.3198 7.22189 25.6586 6.60182 29.9974 6C29.9974 9.79332 29.9974 13.5806 29.9974 17.3739C25.6647 17.3921 21.332 17.459 16.9932 17.4711C16.9871 14.2736 16.9871 11.076 16.9932 7.8845Z" fill="#263238"/>
<path d="M6 9.41036C9.26017 8.91188 12.5325 8.48027 15.8049 8.06689C15.8049 11.2098 15.8049 14.3526 15.811 17.4955C12.5386 17.4955 9.27236 17.5441 6 17.5319V9.41036Z" fill="#263238"/>
<path d="M6 18.5289C9.26627 18.5167 12.5325 18.5714 15.8049 18.5653C15.8049 21.7204 15.811 24.8693 15.8049 28.0243C12.5386 27.538 9.27236 27.1185 6 26.6748V18.5289Z" fill="#263238"/>
<path d="M16.9749 18.6565C21.3197 18.6565 25.6585 18.6565 29.9973 18.6565C30.0034 22.4377 29.9973 26.2188 29.9973 30C25.6707 29.3556 21.3319 28.7538 16.9931 28.1641C16.987 24.9969 16.9809 21.8237 16.9749 18.6565Z" fill="#263238"/>
</g>
<defs>
<clipPath id="clip0_119:5225">
<rect width="24" height="24" fill="white" transform="translate(6 6)"/>
</clipPath>
</defs>
</svg>
