<svg width="36" height="36" viewBox="0 0 36 36" fill="none" xmlns="http://www.w3.org/2000/svg">
<path d="M18 28C23.5228 28 28 23.5228 28 18C28 12.4772 23.5228 8 18 8C12.4772 8 8 12.4772 8 18C8 23.5228 12.4772 28 18 28Z" stroke="inherit" stroke-width="2" stroke-linecap="round" stroke-linejoin="round"/>
<path fill-rule="evenodd" clip-rule="evenodd" d="M23.7446 21.249C23.7446 21.1986 23.7446 21.1482 23.7957 21.0979C23.8051 21.0056 23.8178 20.8948 23.8325 20.7678C23.8978 20.2016 24 19.3149 24 18.3274C24 17.1185 23.8979 16.0606 23.7957 15.5569C23.7957 15.5065 23.7957 15.4562 23.7446 15.4058V15.3554C23.5914 14.9021 23.1828 14.5998 22.672 14.5998H22.7742C22.7742 14.5998 20.7821 14.2976 18.075 14.2976C15.419 14.2976 13.3759 14.5998 13.3759 14.5998H13.478C12.9673 14.5998 12.5586 14.9021 12.4054 15.3554V15.4058V15.4058C12.4054 15.4562 12.4054 15.5065 12.3543 15.5569C12.345 15.6492 12.3322 15.76 12.3176 15.887C12.2523 16.4532 12.15 17.3399 12.15 18.3274C12.15 19.3149 12.2523 20.2016 12.3176 20.7678C12.3322 20.8948 12.345 21.0056 12.3543 21.0979C12.3543 21.1482 12.3543 21.1986 12.4054 21.249V21.2994C12.5586 21.7527 12.9673 22.0549 13.478 22.0549H13.3759C13.3759 22.0549 15.3679 22.3572 18.075 22.3572C20.7311 22.3572 22.7742 22.0549 22.7742 22.0549H22.672C23.1828 22.0549 23.5914 21.7527 23.7446 21.2994V21.249ZM19.8116 18.5791C19.9138 18.5287 19.9649 18.428 19.9138 18.3272C19.9138 18.2265 19.8627 18.1258 19.8116 18.0754L17.411 16.3627C17.3088 16.3124 17.2067 16.3124 17.1045 16.3627C17.0024 16.4131 16.9513 16.5138 16.9513 16.6146V20.0399C16.9513 20.1406 17.0024 20.2414 17.1045 20.2918C17.1556 20.3421 17.2067 20.3421 17.2578 20.3421C17.3088 20.3421 17.3599 20.3421 17.411 20.2918L19.8116 18.5791Z" fill="#263238"/>
</svg>
