<svg width="164" height="178" viewBox="0 0 164 178" fill="none" xmlns="http://www.w3.org/2000/svg">
<path d="M125.396 42.8292C124.626 46.7819 124.296 52.0399 125.97 55.773C126.66 57.0586 127.248 58.3966 127.729 59.7745C128.95 64.0931 127.203 69.034 127.631 73.5357C127.74 74.3441 127.772 75.161 127.729 75.9756C127.562 77.133 127.145 78.2404 126.507 79.2207C125.966 80.1031 125.327 80.9215 124.602 81.6606C122.794 83.4784 117.725 81.0507 115.563 80.4407C111.227 79.2207 106.878 78.0007 102.493 76.9028C91.9276 74.292 80.9344 72.1082 69.9901 72.4132C68.561 72.4132 67.1319 72.5352 65.715 72.6816C43.2034 75.1215 40.0643 75.5973 38.6963 75.5973C37.7924 75.5973 36.0945 72.828 35.6304 72.2424C33.3462 69.3877 31.2087 66.4232 29.1078 63.4343C24.112 56.2732 18.9452 48.6728 15.3175 40.7309C12.8745 35.2655 11.4088 29.0315 12.9601 23.2367C14.78 16.3561 20.2888 11.3664 25.7243 7.14534C27.581 5.69358 30.488 3.66846 27.9107 1.36274C26.164 -0.211014 22.7684 -0.284212 20.6797 0.447765C15.4641 2.28991 10.4928 6.69392 6.44972 10.3172C4.00681 12.4887 1.56383 14.4407 0.659943 17.637C-0.390518 21.1749 0.0248108 25.0299 0.464539 28.6166C0.903397 33.5188 1.82809 38.3656 3.22505 43.0855C6.09549 51.7472 11.9463 58.9448 16.2214 66.899C19.5926 73.1696 22.4874 80.4528 26.7748 86.15C27.5687 87.2114 22.5485 97.7885 31.8072 112.086C34.1524 115.746 32.1981 112.916 38.171 121.614C40.0521 124.359 38.6474 130.825 38.4276 133.875C38.2199 136.608 38.0733 139.377 37.7679 142.097C37.4381 145.099 36.6076 148.087 37.0961 151.125C37.9145 156.176 41.982 161.153 44.7547 165.313C46.3548 167.643 47.9916 169.961 49.7505 172.169C50.4345 173.036 51.5826 174.988 52.7308 175.317C54.5874 175.854 63.3332 179.294 65.9837 175.317C68.6343 171.34 57.5678 167.704 56.5052 164.533C56.5052 164.533 52.7431 157.457 52.6087 155.346C52.4866 153.492 55.87 150.466 57.0182 149.173C59.1191 146.733 61.4399 144.501 62.5636 141.475C63.3538 139.028 63.5834 136.435 63.2354 133.887C63.1621 133.18 63.2354 131.947 63.0644 130.764C63.0274 130.38 63.0666 129.991 63.1797 129.622C63.2929 129.253 63.4778 128.909 63.724 128.611C63.9701 128.313 64.2726 128.067 64.6143 127.885C64.9559 127.704 65.3299 127.592 65.715 127.556H65.8127C68.9885 127.47 72.1521 127.446 75.3279 127.433C84.159 127.372 93.0024 127.433 101.834 127.433C107.99 127.433 114.138 127.47 120.278 127.543C120.865 127.549 121.436 127.735 121.915 128.075C122.393 128.415 122.755 128.894 122.953 129.446C124.809 134.635 126.65 139.828 128.474 145.025C128.967 146.658 129.375 148.315 129.695 149.991C130.135 151.857 130.599 153.724 130.917 155.615C131.711 159.763 131.93 167.229 136.523 169.242C140.575 170.859 145.013 171.254 149.287 170.376C149.607 170.352 149.916 170.255 150.192 170.092C150.467 169.929 150.701 169.705 150.875 169.437C150.944 169.211 150.967 168.975 150.944 168.74C150.921 168.506 150.852 168.278 150.741 168.07C149.043 164.081 143.84 163.044 140.774 159.958C138.898 157.9 137.76 155.278 137.537 152.504C137.109 148.771 137.72 144.915 137.818 141.17C137.818 138.73 137.488 135.766 138.111 133.387C138.893 130.41 141.262 128.007 143.375 125.908C146.5 123.012 149.275 119.761 151.645 116.222C155.615 109.793 155.028 102.668 154.76 95.4827C154.601 91.3349 155.211 85.5522 153.795 81.5752C153.538 80.8676 156.775 78.6961 157.202 78.3057C158.797 76.9685 160.113 75.3311 161.074 73.4868C161.653 72.1595 162.099 70.7783 162.406 69.3633C162.919 67.3138 164.104 64.9959 161.734 63.7149C158.826 61.9439 156.158 59.8078 153.795 57.359C152.463 56.0414 153.001 54.3212 147.565 54.8458C143.454 55.1122 139.327 54.9815 135.241 54.4555C135.094 54.4555 133.518 50.4783 133.323 50.149C131.882 47.7578 128.388 43.061 125.396 42.8292Z" fill="#F38A2A"/>
</svg>
